<svg width="30" height="30" viewBox="0 0 30 30" fill="none" xmlns="http://www.w3.org/2000/svg">
<path d="M21.2501 16.7625L15.8876 11.4625C15.7714 11.3453 15.6332 11.2523 15.4808 11.1889C15.3285 11.1254 15.1651 11.0928 15.0001 11.0928C14.8351 11.0928 14.6717 11.1254 14.5194 11.1889C14.3671 11.2523 14.2288 11.3453 14.1126 11.4625L8.81262 16.7625C8.69546 16.8787 8.60247 17.017 8.539 17.1693C8.47554 17.3216 8.44287 17.485 8.44287 17.65C8.44287 17.815 8.47554 17.9784 8.539 18.1307C8.60247 18.283 8.69546 18.4213 8.81262 18.5375C9.04682 18.7703 9.36364 18.901 9.69387 18.901C10.0241 18.901 10.3409 18.7703 10.5751 18.5375L15.0001 14.1125L19.4251 18.5375C19.6579 18.7684 19.9722 18.8986 20.3001 18.9C20.4646 18.901 20.6277 18.8694 20.78 18.8072C20.9323 18.745 21.0708 18.6534 21.1876 18.5375C21.309 18.4255 21.4069 18.2905 21.4758 18.1404C21.5447 17.9903 21.5831 17.8281 21.5889 17.663C21.5948 17.498 21.5678 17.3334 21.5096 17.1789C21.4515 17.0243 21.3633 16.8828 21.2501 16.7625Z" fill="white"/>
</svg>
