<svg width="15" height="26" viewBox="0 0 15 26" fill="none" xmlns="http://www.w3.org/2000/svg">
<path d="M14.1375 11.1688L3.525 0.575008C3.35069 0.399267 3.14331 0.259778 2.91483 0.164587C2.68634 0.0693954 2.44127 0.0203857 2.19375 0.0203857C1.94622 0.0203857 1.70115 0.0693954 1.47267 0.164587C1.24418 0.259778 1.0368 0.399267 0.862497 0.575008C0.513276 0.926312 0.317261 1.40153 0.317261 1.89688C0.317261 2.39223 0.513276 2.86745 0.862497 3.21876L10.1437 12.5938L0.862497 21.875C0.513276 22.2263 0.317261 22.7015 0.317261 23.1969C0.317261 23.6922 0.513276 24.1675 0.862497 24.5188C1.03615 24.6959 1.24323 24.8369 1.47175 24.9334C1.70027 25.03 1.94567 25.0802 2.19375 25.0813C2.44182 25.0802 2.68723 25.03 2.91574 24.9334C3.14426 24.8369 3.35134 24.6959 3.525 24.5188L14.1375 13.925C14.3278 13.7494 14.4797 13.5363 14.5836 13.2991C14.6875 13.062 14.7411 12.8058 14.7411 12.5469C14.7411 12.2879 14.6875 12.0318 14.5836 11.7946C14.4797 11.5574 14.3278 11.3443 14.1375 11.1688Z" fill="#3EC13B"/>
</svg>
