<svg width="100" height="100" viewBox="0 0 100 100" fill="none" xmlns="http://www.w3.org/2000/svg">
<path d="M91.3332 27.5833C90.9104 26.5652 90.1014 25.7561 89.0832 25.3333C88.5823 25.1198 88.0444 25.0066 87.4999 25H66.6666C65.5615 25 64.5017 25.439 63.7203 26.2204C62.9389 27.0018 62.4999 28.0616 62.4999 29.1667C62.4999 30.2717 62.9389 31.3315 63.7203 32.1129C64.5017 32.8943 65.5615 33.3333 66.6666 33.3333H77.4582L54.1666 56.625L40.4582 42.875C40.0709 42.4845 39.6101 42.1745 39.1023 41.963C38.5946 41.7514 38.05 41.6425 37.4999 41.6425C36.9499 41.6425 36.4053 41.7514 35.8975 41.963C35.3898 42.1745 34.9289 42.4845 34.5416 42.875L9.54157 67.875C9.15104 68.2623 8.84106 68.7232 8.62953 69.2309C8.41799 69.7387 8.30908 70.2833 8.30908 70.8333C8.30908 71.3834 8.41799 71.928 8.62953 72.4357C8.84106 72.9435 9.15104 73.4043 9.54157 73.7917C9.92892 74.1822 10.3898 74.4922 10.8975 74.7037C11.4053 74.9153 11.9499 75.0242 12.4999 75.0242C13.05 75.0242 13.5946 74.9153 14.1023 74.7037C14.6101 74.4922 15.0709 74.1822 15.4582 73.7917L37.4999 51.7083L51.2082 65.4583C51.5956 65.8489 52.0564 66.1588 52.5642 66.3704C53.0719 66.5819 53.6165 66.6908 54.1666 66.6908C54.7166 66.6908 55.2612 66.5819 55.769 66.3704C56.2767 66.1588 56.7376 65.8489 57.1249 65.4583L83.3332 39.2083V50C83.3332 51.1051 83.7722 52.1649 84.5536 52.9463C85.335 53.7277 86.3948 54.1667 87.4999 54.1667C88.605 54.1667 89.6648 53.7277 90.4462 52.9463C91.2276 52.1649 91.6666 51.1051 91.6666 50V29.1667C91.66 28.6222 91.5467 28.0843 91.3332 27.5833Z" fill="white"/>
</svg>
