<svg width="100" height="100" viewBox="0 0 100 100" fill="none" xmlns="http://www.w3.org/2000/svg">
<path d="M68.75 83.0938L60.6562 75L56.25 79.4062L68.75 91.9062L93.75 66.9062L89.3438 62.5L68.75 83.0938Z" fill="white"/>
<path d="M50 56.25C53.4518 56.25 56.25 53.4518 56.25 50C56.25 46.5482 53.4518 43.75 50 43.75C46.5482 43.75 43.75 46.5482 43.75 50C43.75 53.4518 46.5482 56.25 50 56.25Z" fill="white"/>
<path d="M50 68.75C46.2916 68.75 42.6665 67.6503 39.5831 65.5901C36.4996 63.5298 34.0964 60.6014 32.6773 57.1753C31.2581 53.7492 30.8868 49.9792 31.6103 46.3421C32.3338 42.7049 34.1195 39.364 36.7418 36.7418C39.364 34.1195 42.7049 32.3338 46.3421 31.6103C49.9792 30.8868 53.7492 31.2581 57.1753 32.6773C60.6014 34.0964 63.5298 36.4996 65.5901 39.5831C67.6503 42.6665 68.75 46.2916 68.75 50C68.7442 54.971 66.7669 59.7368 63.2519 63.2519C59.7368 66.7669 54.971 68.7442 50 68.75ZM50 37.5C47.5277 37.5 45.111 38.2331 43.0554 39.6066C40.9998 40.9802 39.3976 42.9324 38.4515 45.2165C37.5054 47.5005 37.2579 50.0139 37.7402 52.4386C38.2225 54.8634 39.413 57.0907 41.1612 58.8388C42.9093 60.587 45.1366 61.7775 47.5614 62.2598C49.9861 62.7421 52.4995 62.4946 54.7836 61.5485C57.0676 60.6024 59.0199 59.0002 60.3934 56.9446C61.7669 54.889 62.5 52.4723 62.5 50C62.4959 46.6861 61.1776 43.5091 58.8343 41.1657C56.491 38.8224 53.3139 37.5041 50 37.5Z" fill="white"/>
<path d="M87.5 50C87.5 42.5832 85.3007 35.333 81.1801 29.1661C77.0596 22.9993 71.2029 18.1928 64.3506 15.3545C57.4984 12.5162 49.9584 11.7736 42.6841 13.2206C35.4098 14.6675 28.728 18.239 23.4835 23.4835C18.239 28.728 14.6675 35.4098 13.2206 42.6841C11.7736 49.9584 12.5162 57.4984 15.3545 64.3506C18.1928 71.2029 22.9993 77.0596 29.1661 81.1801C35.333 85.3007 42.5832 87.5 50 87.5V81.25C43.8194 81.25 37.7775 79.4172 32.6384 75.9834C27.4994 72.5496 23.494 67.669 21.1288 61.9589C18.7635 56.2487 18.1447 49.9653 19.3505 43.9034C20.5563 37.8415 23.5325 32.2733 27.9029 27.9029C32.2733 23.5325 37.8415 20.5563 43.9034 19.3505C49.9654 18.1447 56.2487 18.7635 61.9589 21.1288C67.6691 23.494 72.5496 27.4994 75.9834 32.6384C79.4172 37.7775 81.25 43.8193 81.25 50H87.5Z" fill="white"/>
</svg>
