<svg width="600" height="374" viewBox="0 0 600 374" fill="none" xmlns="http://www.w3.org/2000/svg">
<path d="M412.297 356.993H600" stroke="black" stroke-miterlimit="10"/>
<path d="M54.1187 356.993H404.136" stroke="black" stroke-miterlimit="10"/>
<path d="M38.2046 356.993H45.9576" stroke="black" stroke-miterlimit="10"/>
<path d="M547.651 196.91L560.274 317.902" stroke="black" stroke-width="2" stroke-miterlimit="10"/>
<path d="M558.243 294.743L552.512 288.704" stroke="black" stroke-width="2" stroke-miterlimit="10"/>
<path d="M554.253 290.508C554.242 289.584 554.033 288.673 553.64 287.836C553.248 286.999 552.681 286.256 551.977 285.657C550.508 284.342 542.773 281.123 542.002 283.843C541.241 286.781 549.157 292.594 554.253 290.508Z" fill="#3EC13B" stroke="black" stroke-miterlimit="10"/>
<path d="M554.253 290.508L546.89 285.929" stroke="black" stroke-width="0.5" stroke-miterlimit="10"/>
<path d="M559.675 308.508L553.954 302.46" stroke="black" stroke-width="2" stroke-miterlimit="10"/>
<path d="M555.686 304.273C555.677 303.347 555.47 302.434 555.077 301.595C554.684 300.757 554.116 300.012 553.41 299.413C551.941 298.107 544.206 294.879 543.435 297.599C542.683 300.537 550.59 306.35 555.686 304.273Z" fill="#3EC13B" stroke="black" stroke-miterlimit="10"/>
<path d="M555.686 304.273L548.332 299.685" stroke="black" stroke-width="0.5" stroke-miterlimit="10"/>
<path d="M554.733 261.174L549.012 255.126" stroke="black" stroke-width="2" stroke-miterlimit="10"/>
<path d="M550.753 256.939C550.741 256.013 550.53 255.1 550.136 254.262C549.742 253.423 549.173 252.679 548.468 252.079C546.999 250.773 539.273 247.545 538.538 250.265C537.74 253.203 545.657 259.016 550.753 256.939Z" fill="#3EC13B" stroke="black" stroke-miterlimit="10"/>
<path d="M550.753 256.939L543.39 252.351" stroke="black" stroke-width="0.5" stroke-miterlimit="10"/>
<path d="M556.175 274.93L550.444 268.881" stroke="black" stroke-width="2" stroke-miterlimit="10"/>
<path d="M552.186 270.695C552.174 269.771 551.966 268.86 551.573 268.023C551.18 267.186 550.613 266.443 549.91 265.844C548.441 264.529 540.706 261.31 539.935 264.03C539.173 266.959 547.089 272.781 552.186 270.695Z" fill="#3EC13B" stroke="black" stroke-miterlimit="10"/>
<path d="M552.186 270.695L544.823 266.107" stroke="black" stroke-width="0.5" stroke-miterlimit="10"/>
<path d="M552.403 238.822L546.681 232.773" stroke="black" stroke-width="2" stroke-miterlimit="10"/>
<path d="M548.413 234.587C548.405 233.661 548.197 232.748 547.804 231.909C547.412 231.071 546.843 230.326 546.137 229.727C544.668 228.421 536.934 225.193 536.163 227.913C535.41 230.851 543.317 236.664 548.413 234.587Z" fill="#3EC13B" stroke="black" stroke-miterlimit="10"/>
<path d="M548.413 234.587L541.059 229.999" stroke="black" stroke-width="0.5" stroke-miterlimit="10"/>
<path d="M550.064 216.37L544.333 210.322" stroke="black" stroke-width="2" stroke-miterlimit="10"/>
<path d="M546.074 212.135C546.063 211.211 545.854 210.3 545.461 209.463C545.069 208.626 544.501 207.883 543.798 207.284C542.329 205.969 534.594 202.75 533.823 205.47C533.061 208.399 540.978 214.221 546.074 212.135Z" fill="#3EC13B" stroke="black" stroke-miterlimit="10"/>
<path d="M546.074 212.135L538.71 207.547" stroke="black" stroke-width="0.5" stroke-miterlimit="10"/>
<path d="M557.272 286.609L561.625 279.509" stroke="black" stroke-width="2" stroke-miterlimit="10"/>
<path d="M560.301 281.64C560.12 280.732 560.136 279.797 560.347 278.896C560.558 277.995 560.96 277.149 561.526 276.417C562.695 274.83 569.587 270.069 570.865 272.563C572.262 275.301 565.715 282.628 560.301 281.64Z" fill="#3EC13B" stroke="black" stroke-miterlimit="10"/>
<path d="M560.301 281.64L566.93 275.301" stroke="black" stroke-width="0.5" stroke-miterlimit="10"/>
<path d="M553.5 250.392L557.853 243.301" stroke="black" stroke-width="2" stroke-miterlimit="10"/>
<path d="M556.52 245.432C556.342 244.524 556.36 243.588 556.572 242.687C556.785 241.787 557.188 240.942 557.753 240.209C558.914 238.622 565.814 233.862 567.093 236.355C568.48 239.094 561.915 246.411 556.52 245.432Z" fill="#3EC13B" stroke="black" stroke-miterlimit="10"/>
<path d="M556.52 245.432L563.149 239.094" stroke="black" stroke-width="0.5" stroke-miterlimit="10"/>
<path d="M551.841 234.487L556.193 227.387" stroke="black" stroke-width="2" stroke-miterlimit="10"/>
<path d="M554.86 229.545C554.682 228.638 554.698 227.703 554.91 226.802C555.121 225.901 555.521 225.056 556.085 224.322C557.254 222.735 564.146 217.975 565.434 220.468C566.821 223.198 560.283 230.507 554.86 229.545Z" fill="#3EC13B" stroke="black" stroke-miterlimit="10"/>
<path d="M554.86 229.518L561.489 223.18" stroke="black" stroke-width="0.5" stroke-miterlimit="10"/>
<path d="M549.402 211.156L553.754 204.056" stroke="black" stroke-width="2" stroke-miterlimit="10"/>
<path d="M552.43 206.196C552.249 205.288 552.265 204.352 552.476 203.452C552.687 202.551 553.089 201.705 553.655 200.973C554.824 199.386 561.716 194.625 562.994 197.119C564.391 199.848 557.844 207.175 552.43 206.196Z" fill="#3EC13B" stroke="black" stroke-miterlimit="10"/>
<path d="M552.43 206.196L559.059 199.857" stroke="black" stroke-width="0.5" stroke-miterlimit="10"/>
<path d="M547.543 196.239C547.362 195.333 547.378 194.399 547.589 193.499C547.8 192.6 548.202 191.756 548.767 191.025C549.937 189.438 556.828 184.678 558.107 187.172C559.503 189.901 552.956 197.228 547.543 196.239Z" fill="#3EC13B" stroke="black" stroke-miterlimit="10"/>
<path d="M547.543 196.239L554.172 189.91" stroke="black" stroke-width="0.5" stroke-miterlimit="10"/>
<path d="M547.924 196.511C547.003 196.597 546.076 196.485 545.203 196.181C544.33 195.878 543.532 195.39 542.864 194.752C541.404 193.419 537.423 186.065 540.007 185.059C542.873 183.952 549.474 191.234 547.924 196.511Z" fill="#3EC13B" stroke="black" stroke-miterlimit="10"/>
<path d="M547.924 196.511L542.32 189.257" stroke="black" stroke-width="0.5" stroke-miterlimit="10"/>
<path d="M580.949 213.577L568.399 334.569" stroke="black" stroke-width="2" stroke-miterlimit="10"/>
<path d="M571.174 311.491L566.812 304.4" stroke="black" stroke-width="2" stroke-miterlimit="10"/>
<path d="M568.145 306.531C568.323 305.623 568.305 304.687 568.093 303.786C567.88 302.886 567.477 302.041 566.912 301.308C565.742 299.721 558.851 294.96 557.572 297.463C556.176 300.193 562.723 307.528 568.145 306.531Z" fill="#3EC13B" stroke="black" stroke-miterlimit="10"/>
<path d="M568.145 306.531L561.888 300.528" stroke="black" stroke-width="0.5" stroke-miterlimit="10"/>
<path d="M574.655 277.913L570.303 270.822" stroke="black" stroke-width="2" stroke-miterlimit="10"/>
<path d="M571.627 272.953C571.805 272.045 571.787 271.109 571.574 270.208C571.362 269.307 570.959 268.463 570.394 267.73C569.233 266.143 562.332 261.382 561.054 263.885C559.666 266.615 566.213 273.978 571.627 272.953Z" fill="#3EC13B" stroke="black" stroke-miterlimit="10"/>
<path d="M571.627 272.953L565.37 266.95" stroke="black" stroke-width="0.5" stroke-miterlimit="10"/>
<path d="M573.223 291.678L568.87 284.578" stroke="black" stroke-width="2" stroke-miterlimit="10"/>
<path d="M570.203 286.673C570.382 285.766 570.364 284.831 570.151 283.932C569.939 283.033 569.536 282.189 568.97 281.459C567.8 279.872 560.909 275.111 559.63 277.605C558.234 280.379 564.781 287.697 570.203 286.673Z" fill="#3EC13B" stroke="black" stroke-miterlimit="10"/>
<path d="M570.203 286.709L563.938 280.706" stroke="black" stroke-width="0.5" stroke-miterlimit="10"/>
<path d="M576.977 255.561L572.615 248.47" stroke="black" stroke-width="2" stroke-miterlimit="10"/>
<path d="M573.948 250.601C574.126 249.693 574.109 248.757 573.896 247.856C573.683 246.955 573.281 246.11 572.715 245.378C571.545 243.791 564.654 239.03 563.375 241.533C561.979 244.262 568.526 251.589 573.948 250.601Z" fill="#3EC13B" stroke="black" stroke-miterlimit="10"/>
<path d="M573.948 250.601L567.691 244.589" stroke="black" stroke-width="0.5" stroke-miterlimit="10"/>
<path d="M579.307 233.109L574.946 226.018" stroke="black" stroke-width="2" stroke-miterlimit="10"/>
<path d="M576.279 228.149C576.457 227.241 576.439 226.305 576.226 225.404C576.014 224.503 575.611 223.659 575.046 222.926C573.876 221.339 566.984 216.578 565.706 219.081C564.309 221.811 570.856 229.137 576.279 228.149Z" fill="#3EC13B" stroke="black" stroke-miterlimit="10"/>
<path d="M576.279 228.149L570.013 222.146" stroke="black" stroke-width="0.5" stroke-miterlimit="10"/>
<path d="M571.908 303.33L577.63 297.282" stroke="black" stroke-width="2" stroke-miterlimit="10"/>
<path d="M575.889 299.095C575.9 298.17 576.109 297.258 576.502 296.419C576.894 295.581 577.461 294.837 578.165 294.235C579.634 292.92 587.359 289.701 588.139 292.421C588.901 295.35 580.958 301.181 575.889 299.095Z" fill="#3EC13B" stroke="black" stroke-miterlimit="10"/>
<path d="M575.889 299.095L583.678 294.253" stroke="black" stroke-width="0.5" stroke-miterlimit="10"/>
<path d="M575.662 267.113L581.384 261.065" stroke="black" stroke-width="2" stroke-miterlimit="10"/>
<path d="M579.643 262.879C579.654 261.954 579.863 261.043 580.256 260.206C580.648 259.37 581.215 258.627 581.919 258.027C583.388 256.713 591.123 253.493 591.894 256.214C592.655 259.134 584.748 264.955 579.643 262.879Z" fill="#3EC13B" stroke="black" stroke-miterlimit="10"/>
<path d="M579.643 262.879L587.432 258.045" stroke="black" stroke-width="0.5" stroke-miterlimit="10"/>
<path d="M577.312 251.208L583.034 245.151" stroke="black" stroke-width="2" stroke-miterlimit="10"/>
<path d="M581.293 246.965C581.305 246.04 581.513 245.129 581.906 244.292C582.299 243.456 582.866 242.713 583.569 242.113C585.038 240.798 592.773 237.579 593.544 240.3C594.306 243.229 586.399 249.05 581.293 246.965Z" fill="#3EC13B" stroke="black" stroke-miterlimit="10"/>
<path d="M581.293 246.965L589.092 242.131" stroke="black" stroke-width="0.5" stroke-miterlimit="10"/>
<path d="M579.733 227.877L585.455 221.829" stroke="black" stroke-width="2" stroke-miterlimit="10"/>
<path d="M583.678 223.642C583.689 222.717 583.898 221.804 584.291 220.966C584.683 220.128 585.25 219.383 585.954 218.782C587.423 217.467 595.158 214.248 595.928 216.968C596.726 219.897 588.819 225.719 583.678 223.642Z" fill="#3EC13B" stroke="black" stroke-miterlimit="10"/>
<path d="M583.714 223.642L591.513 218.8" stroke="black" stroke-width="0.5" stroke-miterlimit="10"/>
<path d="M580.958 212.897C580.969 211.971 581.178 211.059 581.571 210.221C581.963 209.383 582.53 208.638 583.234 208.037C584.703 206.731 592.428 203.503 593.208 206.223C593.997 209.152 586.081 214.973 580.958 212.897Z" fill="#3EC13B" stroke="black" stroke-miterlimit="10"/>
<path d="M580.985 212.897L588.774 208.064" stroke="black" stroke-width="0.5" stroke-miterlimit="10"/>
<path d="M581.302 213.223C580.384 213.115 579.499 212.811 578.708 212.332C577.916 211.854 577.237 211.212 576.714 210.449C575.562 208.853 573.087 200.828 575.916 200.383C578.945 199.912 583.905 208.39 581.302 213.223Z" fill="#3EC13B" stroke="black" stroke-miterlimit="10"/>
<path d="M581.302 213.241L577.312 204.99" stroke="black" stroke-width="0.5" stroke-miterlimit="10"/>
<path d="M566.558 164.312V317.313" stroke="black" stroke-width="2" stroke-miterlimit="10"/>
<path d="M566.685 294.308L561.616 287.697" stroke="black" stroke-width="2" stroke-miterlimit="10"/>
<path d="M563.157 289.683C563.244 288.761 563.131 287.832 562.828 286.958C562.524 286.083 562.037 285.284 561.398 284.614C560.074 283.154 552.72 279.119 551.705 281.749C550.608 284.614 557.871 291.206 563.157 289.683Z" fill="#3EC13B" stroke="black" stroke-miterlimit="10"/>
<path d="M563.158 289.683L556.312 284.351" stroke="black" stroke-width="0.5" stroke-miterlimit="10"/>
<path d="M566.685 265.554L561.616 258.943" stroke="black" stroke-width="2" stroke-miterlimit="10"/>
<path d="M563.157 260.929C563.244 260.007 563.131 259.078 562.828 258.204C562.524 257.329 562.037 256.53 561.398 255.86C560.074 254.4 552.72 250.365 551.705 252.995C550.608 255.842 557.871 262.471 563.157 260.929Z" fill="#3EC13B" stroke="black" stroke-miterlimit="10"/>
<path d="M563.158 260.929L556.312 255.597" stroke="black" stroke-width="0.5" stroke-miterlimit="10"/>
<path d="M566.685 231.794L561.616 225.184" stroke="black" stroke-width="2" stroke-miterlimit="10"/>
<path d="M563.157 227.17C563.244 226.248 563.131 225.319 562.828 224.444C562.524 223.57 562.037 222.771 561.398 222.101C560.074 220.65 552.72 216.606 551.705 219.244C550.608 222.101 557.871 228.711 563.157 227.17Z" fill="#3EC13B" stroke="black" stroke-miterlimit="10"/>
<path d="M563.158 227.17L556.312 221.838" stroke="black" stroke-width="0.5" stroke-miterlimit="10"/>
<path d="M566.685 209.324L561.616 202.714" stroke="black" stroke-width="2" stroke-miterlimit="10"/>
<path d="M563.157 204.7C563.244 203.778 563.131 202.849 562.828 201.974C562.524 201.1 562.037 200.301 561.398 199.631C560.074 198.171 552.72 194.136 551.705 196.765C550.608 199.622 557.871 206.241 563.157 204.7Z" fill="#3EC13B" stroke="black" stroke-miterlimit="10"/>
<path d="M563.158 204.7L556.312 199.368" stroke="black" stroke-width="0.5" stroke-miterlimit="10"/>
<path d="M566.685 186.754L561.616 180.144" stroke="black" stroke-width="2" stroke-miterlimit="10"/>
<path d="M563.157 182.121C563.243 181.201 563.131 180.273 562.827 179.4C562.524 178.527 562.037 177.729 561.398 177.061C560.074 175.601 552.72 171.566 551.705 174.196C550.608 177.061 557.871 183.662 563.157 182.121Z" fill="#3EC13B" stroke="black" stroke-miterlimit="10"/>
<path d="M563.158 182.121L556.312 176.798" stroke="black" stroke-width="0.5" stroke-miterlimit="10"/>
<path d="M566.576 303.085L571.636 296.475" stroke="black" stroke-width="2" stroke-miterlimit="10"/>
<path d="M570.076 298.461C570 297.535 570.122 296.604 570.435 295.73C570.748 294.856 571.244 294.058 571.89 293.392C573.214 291.941 580.568 287.897 581.574 290.535C582.653 293.392 575.381 300.002 570.076 298.461Z" fill="#3EC13B" stroke="black" stroke-miterlimit="10"/>
<path d="M570.094 298.461L577.348 292.848" stroke="black" stroke-width="0.5" stroke-miterlimit="10"/>
<path d="M566.576 257.356L571.636 250.746" stroke="black" stroke-width="2" stroke-miterlimit="10"/>
<path d="M570.076 252.732C569.999 251.806 570.121 250.875 570.434 250.001C570.747 249.126 571.243 248.329 571.89 247.663C573.214 246.203 580.568 242.168 581.574 244.797C582.653 247.681 575.381 254.273 570.076 252.732Z" fill="#3EC13B" stroke="black" stroke-miterlimit="10"/>
<path d="M570.094 252.732L577.348 247.119" stroke="black" stroke-width="0.5" stroke-miterlimit="10"/>
<path d="M566.576 234.787L571.636 228.176" stroke="black" stroke-width="2" stroke-miterlimit="10"/>
<path d="M570.076 230.162C569.999 229.237 570.121 228.305 570.434 227.431C570.747 226.557 571.243 225.759 571.89 225.093C573.214 223.633 580.568 219.598 581.574 222.228C582.653 225.093 575.381 231.703 570.076 230.162Z" fill="#3EC13B" stroke="black" stroke-miterlimit="10"/>
<path d="M570.094 230.162L577.348 224.549" stroke="black" stroke-width="0.5" stroke-miterlimit="10"/>
<path d="M566.576 204.953L571.636 198.343" stroke="black" stroke-width="2" stroke-miterlimit="10"/>
<path d="M570.076 200.329C569.999 199.403 570.121 198.472 570.434 197.598C570.747 196.724 571.243 195.926 571.89 195.26C573.214 193.8 580.568 189.765 581.574 192.395C582.653 195.26 575.381 201.87 570.076 200.329Z" fill="#3EC13B" stroke="black" stroke-miterlimit="10"/>
<path d="M570.094 200.329L577.348 194.716" stroke="black" stroke-width="0.5" stroke-miterlimit="10"/>
<path d="M566.576 181.495L571.636 174.894" stroke="black" stroke-width="2" stroke-miterlimit="10"/>
<path d="M570.076 176.87C569.999 175.946 570.121 175.017 570.434 174.144C570.747 173.271 571.243 172.475 571.89 171.811C573.214 170.351 580.568 166.307 581.574 168.945C582.653 171.811 575.381 178.412 570.076 176.87Z" fill="#3EC13B" stroke="black" stroke-miterlimit="10"/>
<path d="M570.094 176.871L577.348 171.258" stroke="black" stroke-width="0.5" stroke-miterlimit="10"/>
<path d="M566.268 166.47C566.185 165.548 566.299 164.62 566.602 163.746C566.905 162.872 567.391 162.073 568.027 161.401C569.36 159.95 576.705 155.906 577.721 158.544C578.827 161.401 571.555 168.011 566.268 166.47Z" fill="#3EC13B" stroke="black" stroke-miterlimit="10"/>
<path d="M566.268 166.47L573.522 160.857" stroke="black" stroke-width="0.5" stroke-miterlimit="10"/>
<path d="M566.622 166.778C565.697 166.767 564.786 166.558 563.949 166.165C563.113 165.773 562.37 165.206 561.77 164.502C560.456 163.024 557.236 155.289 559.957 154.527C562.904 153.766 568.707 161.691 566.622 166.778Z" fill="#3EC13B" stroke="black" stroke-miterlimit="10"/>
<path d="M566.621 166.778L561.797 158.98" stroke="black" stroke-width="0.5" stroke-miterlimit="10"/>
<path d="M572.86 356.993H556.656L554.625 316.07H574.882L572.86 356.993Z" fill="black" stroke="black" stroke-miterlimit="10"/>
<path d="M229.889 36.9272H221.292V41.0349H229.889V36.9272Z" stroke="black" stroke-miterlimit="10"/>
<path d="M239.981 36.9272H231.385V41.0349H239.981V36.9272Z" stroke="black" stroke-miterlimit="10"/>
<path d="M250.073 36.9272H241.477V41.0349H250.073V36.9272Z" stroke="black" stroke-miterlimit="10"/>
<path d="M260.166 36.9272H251.57V41.0349H260.166V36.9272Z" stroke="black" stroke-miterlimit="10"/>
<path d="M270.25 36.9272H261.653V41.0349H270.25V36.9272Z" stroke="black" stroke-miterlimit="10"/>
<path d="M280.342 36.9272H271.746V41.0349H280.342V36.9272Z" stroke="black" stroke-miterlimit="10"/>
<path d="M290.434 36.9272H281.838V41.0349H290.434V36.9272Z" stroke="black" stroke-miterlimit="10"/>
<path d="M300.518 36.9272H291.921V41.0349H300.518V36.9272Z" stroke="black" stroke-miterlimit="10"/>
<path d="M229.889 43.6555H221.292V47.7632H229.889V43.6555Z" stroke="black" stroke-miterlimit="10"/>
<path d="M239.981 43.6555H231.385V47.7632H239.981V43.6555Z" stroke="black" stroke-miterlimit="10"/>
<path d="M250.073 43.6555H241.477V47.7632H250.073V43.6555Z" stroke="black" stroke-miterlimit="10"/>
<path d="M260.166 43.6555H251.57V47.7632H260.166V43.6555Z" stroke="black" stroke-miterlimit="10"/>
<path d="M270.25 43.6555H261.653V47.7632H270.25V43.6555Z" stroke="black" stroke-miterlimit="10"/>
<path d="M280.342 43.6555H271.746V47.7632H280.342V43.6555Z" stroke="black" stroke-miterlimit="10"/>
<path d="M290.434 43.6555H281.838V47.7632H290.434V43.6555Z" stroke="black" stroke-miterlimit="10"/>
<path d="M300.518 43.6555H291.921V47.7632H300.518V43.6555Z" stroke="black" stroke-miterlimit="10"/>
<path d="M229.889 50.3838H221.292V54.4915H229.889V50.3838Z" stroke="black" stroke-miterlimit="10"/>
<path d="M239.981 50.3838H231.385V54.4915H239.981V50.3838Z" stroke="black" stroke-miterlimit="10"/>
<path d="M250.073 50.3838H241.477V54.4915H250.073V50.3838Z" stroke="black" stroke-miterlimit="10"/>
<path d="M260.166 50.3838H251.57V54.4915H260.166V50.3838Z" stroke="black" stroke-miterlimit="10"/>
<path d="M270.25 50.3838H261.653V54.4915H270.25V50.3838Z" stroke="black" stroke-miterlimit="10"/>
<path d="M280.342 50.3838H271.746V54.4915H280.342V50.3838Z" stroke="black" stroke-miterlimit="10"/>
<path d="M290.434 50.3838H281.838V54.4915H290.434V50.3838Z" stroke="black" stroke-miterlimit="10"/>
<path d="M300.518 50.3838H291.921V54.4915H300.518V50.3838Z" stroke="black" stroke-miterlimit="10"/>
<path d="M229.889 57.1121H221.292V61.2198H229.889V57.1121Z" stroke="black" stroke-miterlimit="10"/>
<path d="M239.981 57.1121H231.385V61.2198H239.981V57.1121Z" stroke="black" stroke-miterlimit="10"/>
<path d="M269.506 57.1121H241.477V61.2198H269.506V57.1121Z" stroke="black" stroke-miterlimit="10"/>
<path d="M280.342 57.1121H271.746V61.2198H280.342V57.1121Z" stroke="black" stroke-miterlimit="10"/>
<path d="M290.434 57.1121H281.838V61.2198H290.434V57.1121Z" stroke="black" stroke-miterlimit="10"/>
<path d="M300.518 57.1121H291.921V61.2198H300.518V57.1121Z" stroke="black" stroke-miterlimit="10"/>
<path d="M310.22 106.668C310.22 106.668 333.552 74.0235 369.161 55.3257" stroke="black" stroke-miterlimit="10"/>
<path d="M344.587 71.4483L346.283 45.5597" stroke="black" stroke-miterlimit="10"/>
<path d="M336.109 78.9564L360.791 81.2052" stroke="black" stroke-miterlimit="10"/>
<path d="M345.086 58.2093C345.086 58.2093 339.192 55.1262 339.473 45.5869C339.757 39.7136 342.145 34.1388 346.201 29.8815C349.26 34.3829 351.1 39.6003 351.542 45.0247C352.096 53.7207 345.086 58.2093 345.086 58.2093Z" stroke="black" stroke-miterlimit="10"/>
<path d="M325.454 77.2789C325.454 77.2789 319.569 74.1958 319.841 64.6565C320.128 58.782 322.519 53.207 326.579 48.951C329.629 53.4552 331.463 58.6719 331.901 64.0943C332.5 72.7903 325.454 77.2789 325.454 77.2789Z" stroke="black" stroke-miterlimit="10"/>
<path d="M350.128 80.0808C351.454 78.5616 353.095 77.3483 354.936 76.5248C356.777 75.7013 358.775 75.2873 360.792 75.3112C367.801 75.3112 374.81 84.8505 374.81 84.8505C369.985 86.6383 364.84 87.4011 359.704 87.0902C351.252 86.528 350.128 80.0808 350.128 80.0808Z" stroke="black" stroke-miterlimit="10"/>
<path d="M358.543 62.1356C358.543 62.1356 355.741 53.4396 364.709 49.7944C369.892 47.6066 375.721 47.5059 380.977 49.5133C380.977 49.5133 380.977 58.7715 372.816 62.4168C364.654 66.062 358.543 62.1356 358.543 62.1356Z" stroke="black" stroke-miterlimit="10"/>
<path d="M326.298 87.9335L325.735 66.3431" stroke="black" stroke-miterlimit="10"/>
<path d="M521.917 49.0236H478.51V76.3721H503.102L502.295 88.8585L511.943 76.3721H521.917V49.0236Z" stroke="black" stroke-miterlimit="10"/>
<path d="M545.176 80.5342H515.379V99.3136H532.255L531.701 107.883L538.33 99.3136H545.176V80.5342Z" stroke="black" stroke-miterlimit="10"/>
<path d="M493.662 62.6978C493.662 63.1695 493.522 63.6306 493.26 64.0228C492.998 64.415 492.626 64.7206 492.19 64.9011C491.754 65.0816 491.275 65.1289 490.812 65.0368C490.35 64.9448 489.925 64.7177 489.591 64.3842C489.258 64.0506 489.03 63.6257 488.938 63.1631C488.846 62.7005 488.894 62.221 489.074 61.7852C489.255 61.3494 489.56 60.977 489.952 60.7149C490.345 60.4529 490.806 60.313 491.277 60.313C491.591 60.3118 491.902 60.3727 492.191 60.4921C492.481 60.6115 492.745 60.7871 492.966 61.0088C493.188 61.2305 493.364 61.4939 493.483 61.7838C493.603 62.0737 493.663 62.3843 493.662 62.6978V62.6978Z" stroke="black" stroke-miterlimit="10"/>
<path d="M503.763 62.6978C503.761 63.1673 503.621 63.6258 503.358 64.0153C503.096 64.4048 502.725 64.7079 502.29 64.8863C501.856 65.0647 501.379 65.1105 500.918 65.0178C500.458 64.9251 500.036 64.6981 499.704 64.3655C499.373 64.0329 499.148 63.6095 499.057 63.1489C498.966 62.6883 499.013 62.2111 499.193 61.7775C499.373 61.3439 499.678 60.9734 500.069 60.7128C500.459 60.4521 500.918 60.313 501.387 60.313C501.7 60.313 502.01 60.3748 502.299 60.4947C502.588 60.6147 502.85 60.7905 503.071 61.0121C503.291 61.2336 503.466 61.4966 503.585 61.7859C503.704 62.0752 503.764 62.3851 503.763 62.6978V62.6978Z" stroke="black" stroke-miterlimit="10"/>
<path d="M513.856 62.6978C513.854 63.1673 513.713 63.6258 513.451 64.0153C513.189 64.4048 512.817 64.7079 512.383 64.8863C511.949 65.0647 511.471 65.1105 511.011 65.0178C510.551 64.9251 510.128 64.6981 509.797 64.3655C509.466 64.0329 509.24 63.6095 509.149 63.1489C509.059 62.6883 509.106 62.2111 509.286 61.7775C509.466 61.3439 509.771 60.9734 510.161 60.7128C510.552 60.4521 511.011 60.313 511.48 60.313C511.793 60.313 512.103 60.3748 512.392 60.4947C512.68 60.6147 512.943 60.7905 513.163 61.0121C513.384 61.2336 513.559 61.4966 513.678 61.7859C513.797 62.0752 513.857 62.3851 513.856 62.6978V62.6978Z" stroke="black" stroke-miterlimit="10"/>
<path d="M44.6694 128.811H77.5311V149.522H58.9149L59.5225 158.971L52.2229 149.522H44.6694V128.811Z" stroke="black" stroke-miterlimit="10"/>
<path d="M27.0601 152.669H49.6208V166.887H36.8442L37.2613 173.379L32.2468 166.887H27.0601V152.669Z" stroke="black" stroke-miterlimit="10"/>
<path d="M67.865 140.971C68.8616 140.971 69.6695 140.163 69.6695 139.167C69.6695 138.17 68.8616 137.362 67.865 137.362C66.8685 137.362 66.0605 138.17 66.0605 139.167C66.0605 140.163 66.8685 140.971 67.865 140.971Z" stroke="black" stroke-miterlimit="10"/>
<path d="M60.2122 140.971C61.2088 140.971 62.0167 140.163 62.0167 139.167C62.0167 138.17 61.2088 137.362 60.2122 137.362C59.2156 137.362 58.4077 138.17 58.4077 139.167C58.4077 140.163 59.2156 140.971 60.2122 140.971Z" stroke="black" stroke-miterlimit="10"/>
<path d="M52.5584 140.971C53.555 140.971 54.3629 140.163 54.3629 139.167C54.3629 138.17 53.555 137.362 52.5584 137.362C51.5618 137.362 50.7539 138.17 50.7539 139.167C50.7539 140.163 51.5618 140.971 52.5584 140.971Z" stroke="black" stroke-miterlimit="10"/>
<path d="M85.5111 67.5944C85.3644 67.144 85.2969 66.6715 85.3116 66.198C85.3116 61.2016 89.2289 60.7573 89.2289 55.0627C89.2289 53.4305 88.576 52.8049 87.4153 52.8049C86.2546 52.8049 85.6017 53.4305 85.6017 55.0627V57.5383H82.2285V55.2894C82.2285 51.6623 84.0421 49.5405 87.5241 49.5405C91.0061 49.5405 92.8106 51.6351 92.8106 55.2894C92.8106 61.2289 88.5669 62.1447 88.5669 66.325C88.5637 66.7514 88.6063 67.177 88.6939 67.5944H85.5111ZM88.8027 69.1994V72.6724H85.3478V69.2085L88.8027 69.1994Z" stroke="black" stroke-miterlimit="10"/>
<path d="M203.737 310.884C203.59 310.43 203.523 309.955 203.538 309.478C203.538 304.482 207.455 304.037 207.455 298.343C207.455 296.711 206.802 296.094 205.641 296.094C204.481 296.094 203.828 296.711 203.828 298.343V300.827H200.437V298.579C200.437 294.951 202.25 292.83 205.723 292.83C209.196 292.83 211.01 294.915 211.01 298.579C211.01 304.518 206.766 305.434 206.766 309.614C206.762 310.041 206.807 310.467 206.902 310.884H203.737ZM207.038 312.489V315.943H203.574V312.489H207.038Z" stroke="black" stroke-miterlimit="10"/>
<path d="M165.933 211.12H219.08V248.588H165.933V356.721H124.756V94.7072H233.661V132.139H165.933V211.12Z" fill="#3EC13B" stroke="black" stroke-miterlimit="10"/>
<path d="M229.145 104.845V127.605H161.399V215.654H194.043" stroke="black" stroke-miterlimit="10"/>
<path d="M129.29 139.475V99.2411H229.145V102.904" stroke="black" stroke-miterlimit="10"/>
<path d="M129.29 332.456V144.535" stroke="black" stroke-miterlimit="10"/>
<path d="M161.399 270.985V352.187H129.29V337.906" stroke="black" stroke-miterlimit="10"/>
<path d="M161.399 257.365V265.146" stroke="black" stroke-miterlimit="10"/>
<path d="M199.493 215.654H214.546V244.018H161.399V253.865" stroke="black" stroke-miterlimit="10"/>
<path d="M381.91 356.721H340.362L333.252 309.188H282.718L275.608 356.721H237.805L279.725 94.7072H339.99L381.91 356.721ZM287.959 273.624H327.639L307.799 141.125L287.959 273.624Z" fill="#3EC13B" stroke="black" stroke-miterlimit="10"/>
<path d="M328.673 249.25L312.351 137.525H303.383L282.708 278.158H332.908L329.652 255.896M247.162 326.915L268.816 191.56L247.162 326.915ZM340.86 329.436L337.16 304.654H278.809L271.745 352.187H243.118L246.355 332.093L340.86 329.436ZM371.99 323.288L376.614 352.187H344.288L341.458 333.299L371.99 323.288ZM348.114 174.105L371.192 318.41L348.114 174.105ZM269.868 184.986L283.588 99.2411H336.127L346.808 165.953L269.868 184.986Z" stroke="black" stroke-miterlimit="10"/>
<path d="M397.262 157.592C397.262 115.672 419.342 91.7148 459.766 91.7148C500.19 91.7148 522.279 115.672 522.279 157.592V293.836C522.279 308.435 519.659 320.786 514.418 330.524C516.286 335.385 519.287 336.137 526.024 336.137H529.76V372.817H524.147C505.803 372.817 494.224 366.079 488.593 354.853C479.339 358.135 469.584 359.78 459.766 359.714C419.342 359.714 397.262 335.766 397.262 293.836V157.592ZM438.43 296.457C438.43 315.173 446.672 322.282 459.766 322.282C472.86 322.282 481.103 315.173 481.103 296.457V154.999C481.103 136.283 472.869 129.174 459.766 129.174C446.663 129.174 438.43 136.283 438.43 154.999V296.457Z" fill="#3EC13B" stroke="black" stroke-miterlimit="10"/>
<path d="M485.637 164.375V154.972C485.637 129.881 471.573 124.613 459.766 124.613C447.96 124.613 433.896 129.881 433.896 154.972V186.927M503.246 363.794C498.664 361.341 494.959 357.522 492.646 352.867L490.833 349.24L487.033 350.628C478.279 353.737 469.047 355.29 459.757 355.216C441.023 355.216 426.515 349.902 416.649 339.429C415.173 337.856 413.807 336.183 412.559 334.424L503.246 363.794ZM514.763 317.693C513.704 321.402 512.251 324.986 510.428 328.384L509.44 330.198L510.183 332.139C513.094 339.692 518.916 340.599 525.227 340.653V368.283H524.148C518.846 368.378 513.563 367.628 508.497 366.061L514.763 317.693ZM517.746 172.155V293.836C517.796 300.125 517.203 306.402 515.978 312.57L517.746 172.155ZM402.186 148.352C403.537 133.01 408.388 120.822 416.694 112.081C426.524 101.562 441.032 96.2487 459.766 96.2487C478.5 96.2487 493.018 101.562 502.884 112.045C512.75 122.527 517.746 137.843 517.746 157.592V166.325L402.186 148.352ZM408.842 328.167C404.154 318.909 401.796 307.42 401.796 293.836V157.592C401.796 156.332 401.796 155.09 401.859 153.856L408.842 328.167ZM433.896 294.326V296.457C433.896 321.556 447.969 326.816 459.766 326.816C471.564 326.816 485.637 321.556 485.637 296.457V170.605L433.896 294.326ZM433.896 193.945V289.266V193.945Z" stroke="black" stroke-miterlimit="10"/>
<path d="M468.989 169.698C468.989 169.698 475.953 171.094 480.124 174.477C484.295 177.859 487.079 186.002 485.093 191.17C483.107 196.339 482.572 196.004 484.957 198.987C487.342 201.97 485.356 207.148 485.356 207.148L470.05 202.378C470.155 198.698 470.458 195.027 470.956 191.379C471.745 186.011 471.346 176.073 468.961 173.289L468.989 169.698Z" fill="black" stroke="black" stroke-linecap="round" stroke-linejoin="round"/>
<path d="M447.389 297.554L449.974 311.473C449.685 317.157 450.219 322.853 451.56 328.384C453.746 336.545 455.342 354.826 455.342 354.826C455.342 354.826 451.959 357.601 448.378 359.986C444.796 362.371 442.62 364.565 447.589 364.565C452.558 364.565 455.142 363.168 458.116 361.981C461.091 360.793 463.485 360.167 463.485 358.598C463.485 357.03 461.898 350.437 461.898 350.437C461.898 350.437 462.496 327.187 462.496 319.607C462.529 315.26 462.06 310.924 461.1 306.685V299.186L447.389 297.554Z" fill="white" stroke="black" stroke-linecap="round" stroke-linejoin="round"/>
<path d="M458.116 361.999C461.099 360.802 463.484 360.185 463.484 358.616C463.433 357.815 463.324 357.018 463.158 356.232C461.752 356.93 460.147 357.764 459.114 358.417C456.928 359.813 453.945 361.201 452.159 361.201C450.83 361.061 449.542 360.661 448.368 360.022C444.795 362.398 442.619 364.556 447.588 364.556C452.558 364.556 455.142 363.187 458.116 361.999Z" fill="black" stroke="black" stroke-linecap="round" stroke-linejoin="round"/>
<path d="M458.914 301.97L459.513 311.31C459.513 311.31 458.316 322.635 459.513 330.352C460.71 338.069 460.701 352.813 460.701 355.198C460.701 357.583 458.887 360.167 455.732 362.951C455.732 362.951 453.147 365.934 454.344 367.721C455.541 369.507 464.083 366.134 464.319 364.148C464.555 362.162 466.504 357.8 466.504 356.395V350.047C466.504 348.66 472.072 329.98 471.473 323.216C470.875 316.451 470.875 306.522 470.875 306.522L471.074 299.567C471.074 299.567 462.297 302.369 458.914 301.97Z" fill="white" stroke="black" stroke-linecap="round" stroke-linejoin="round"/>
<path d="M461.698 363.985C458.787 365.354 457.164 362.742 456.82 361.99C456.484 362.325 456.122 362.652 455.732 362.987C455.732 362.987 453.147 365.97 454.344 367.757C455.541 369.543 464.083 366.17 464.319 364.184C464.555 362.198 466.504 357.837 466.504 356.431C465.543 359.07 463.865 362.96 461.698 363.985Z" fill="black" stroke="black" stroke-linecap="round" stroke-linejoin="round"/>
<path d="M446.192 240.545C446.192 240.545 438.639 257.248 438.031 266.188C437.424 275.129 442.81 298.787 442.81 298.787C442.81 298.787 452.549 303.321 460.692 302.958C465.529 302.747 470.307 301.809 474.865 300.174C474.865 300.174 482.019 279.319 479.834 266.986C477.648 254.654 472.28 241.941 472.28 241.941L446.754 238.758L446.192 240.545Z" fill="black" stroke="black" stroke-linecap="round" stroke-linejoin="round"/>
<path d="M457.926 198.407C457.926 198.407 461.299 196.421 463.884 196.421H467.864C467.864 196.421 469.678 203.575 469.678 204.373C469.678 205.171 462.124 241.742 462.124 241.742L447.815 240.345C447.815 240.345 447.815 217.295 449.801 210.331C451.787 203.367 457.926 198.407 457.926 198.407Z" fill="white" stroke="black" stroke-linecap="round" stroke-linejoin="round"/>
<path d="M446.754 169.916C446.754 169.916 445.367 178.267 447.153 184.034C448.94 189.801 453.909 195.958 455.904 196.158C457.38 196.162 458.826 195.747 460.075 194.961L459.341 197.618L457.754 206.957L464.908 207.556C464.908 207.556 467.891 197.019 467.891 196.421C467.891 195.822 467.828 194.371 467.828 194.371L467.03 186.419C468.126 184.619 469.122 182.76 470.013 180.851C470.612 179.264 469.215 176.68 469.215 176.68C469.215 176.68 470.648 168.084 465.842 163.758C459.876 158.39 449.52 163.16 446.954 165.744C444.388 168.329 446.754 169.916 446.754 169.916Z" fill="white" stroke="black" stroke-linecap="round" stroke-linejoin="round"/>
<path d="M460.048 194.961L462.777 194.163L458.86 201.063L460.048 194.961Z" fill="black" stroke="black" stroke-linecap="round" stroke-linejoin="round"/>
<path d="M465.797 163.758C459.449 158.39 449.475 163.16 446.909 165.744C444.342 168.329 446.709 169.916 446.709 169.916C446.709 169.916 448.105 168.528 451.678 169.916C455.251 171.303 458.026 178.466 460.628 179.264C462.26 179.756 463.919 180.153 465.597 180.452C465.597 180.452 465.597 177.469 466.985 177.07C467.694 176.851 468.428 176.72 469.17 176.68C469.17 176.68 470.757 167.93 465.797 163.758Z" fill="black" stroke="black" stroke-linecap="round" stroke-linejoin="round"/>
<path d="M451.297 178.865L452.893 181.25L452.095 187.607L454.68 188.006" stroke="black" stroke-linecap="round" stroke-linejoin="round"/>
<path d="M453.882 190.191C454.422 190.293 454.98 190.256 455.501 190.083C456.023 189.91 456.493 189.607 456.865 189.203" stroke="black" stroke-linecap="round" stroke-linejoin="round"/>
<path d="M448.323 180.053L448.913 182.837C449.925 182.952 450.95 182.815 451.896 182.438" stroke="black" stroke-linecap="round" stroke-linejoin="round"/>
<path d="M456.466 178.865L456.865 181.849C456.865 181.849 459.649 182.638 460.646 182.039" stroke="black" stroke-linecap="round" stroke-linejoin="round"/>
<path d="M447.525 178.067C448.517 177.6 449.631 177.461 450.708 177.668" stroke="black" stroke-linecap="round" stroke-linejoin="round"/>
<path d="M454.916 176.88C454.916 176.88 455.713 176.082 457.899 176.481" stroke="black" stroke-linecap="round" stroke-linejoin="round"/>
<path d="M459.313 197.618C459.313 197.618 450.563 201.789 448.577 202.152C446.591 202.514 443.009 204.137 443.209 205.525C443.408 206.912 442.42 228.385 443.009 229.781C443.599 231.178 443.009 242.304 442.619 243.691C442.23 245.079 435.873 263.205 435.873 263.205C435.873 263.205 437.269 264.801 440.253 263.604C443.236 262.407 447.407 249.694 448.196 244.725C448.985 239.756 454.362 217.884 455.75 212.915C457.137 207.946 459.313 197.618 459.313 197.618Z" fill="white" stroke="black" stroke-linecap="round" stroke-linejoin="round"/>
<path d="M467.864 196.421C467.864 196.421 463.884 211.727 461.898 217.884C459.912 224.041 457.926 227.632 458.271 232.393C458.615 237.153 458.071 261.21 461.653 264.592C465.235 267.975 469.814 270.151 474.348 270.151C477.506 270.071 480.643 269.605 483.688 268.764C483.688 268.764 478.12 238.35 478.12 237.561C478.12 236.772 486.871 208.735 486.671 206.35C486.472 203.965 467.864 196.421 467.864 196.421Z" fill="white" stroke="black" stroke-linecap="round" stroke-linejoin="round"/>
<path d="M451.56 215.3C451.587 218.941 451.856 222.576 452.367 226.181C453.773 220.414 455.087 215.064 455.731 212.897C457.128 207.928 459.358 197.6 459.358 197.6C459.358 197.6 457.173 198.642 454.734 199.73C453.609 203.122 451.56 210.177 451.56 215.3Z" fill="#3EC13B" stroke="black" stroke-linecap="round" stroke-linejoin="round"/>
<path d="M467.864 196.421C467.864 196.421 463.883 211.727 461.898 217.884C460.828 221.185 459.767 223.751 459.068 226.145C461.955 223.876 464.453 221.153 466.468 218.084C469.732 213.196 471.79 202.152 472.416 198.343C469.796 197.201 467.864 196.421 467.864 196.421Z" fill="#3EC13B" stroke="black" stroke-linecap="round" stroke-linejoin="round"/>
<path d="M432.246 238.958L430.26 244.725L428.265 237.371C429.011 237.213 429.787 237.279 430.496 237.562C431.204 237.844 431.813 238.33 432.246 238.958Z" fill="black" stroke="black" stroke-linecap="round" stroke-linejoin="round"/>
<path d="M418.146 216.461L429.471 236.337L444.179 237.135L434.44 216.461H418.146Z" fill="black" stroke="black" stroke-linecap="round" stroke-linejoin="round"/>
<path d="M428.301 237.371C428.301 237.371 422.743 229.21 421.954 227.233C421.262 225.591 420.857 223.843 420.757 222.064C420.757 220.868 421.156 220.469 421.754 221.865C422.353 223.261 423.568 226.236 423.568 226.236L424.565 220.269C424.565 220.269 425.164 219.281 425.753 220.469C426.343 221.656 425.753 226.236 425.753 226.236L427.349 219.281C427.349 219.281 428.138 217.884 428.737 218.882C429.335 219.879 428.338 225.438 428.338 225.438L430.151 221.266C430.433 221.272 430.705 221.374 430.921 221.555C431.138 221.737 431.285 221.987 431.339 222.264C431.538 223.252 429.952 228.611 429.952 228.611L432.536 226.027C432.536 226.027 433.524 225.628 433.125 226.825C432.398 228.292 431.535 229.688 430.55 230.996C431.036 232.158 431.433 233.356 431.738 234.578C431.571 235.339 431.303 236.074 430.94 236.763L432.336 238.949L431.538 240.536L428.301 237.371Z" fill="white" stroke="black" stroke-linecap="round" stroke-linejoin="round"/>
<path d="M442.619 243.727C442.933 241.592 443.115 239.438 443.163 237.28L432.083 238.187L430.269 244.752L442.057 245.251C442.384 244.462 442.556 243.927 442.619 243.727Z" fill="white" stroke="black" stroke-linecap="round" stroke-linejoin="round"/>
<path d="M459.513 231.604C459.513 231.604 453.084 226.544 451.787 225.429C450.037 223.932 446.99 224.449 446.99 224.449C446.99 224.449 442.221 227.632 441.423 228.421C440.625 229.21 440.625 230.017 441.423 229.817C442.868 229.122 444.261 228.325 445.594 227.433L445.793 230.407L449.974 231.604L451.162 230.407C451.75 230.869 452.425 231.208 453.147 231.404C453.818 231.509 454.505 231.44 455.142 231.205L458.914 234.587L459.513 231.604Z" fill="white" stroke="black" stroke-linecap="round" stroke-linejoin="round"/>
<path d="M479.988 202.777C479.988 202.777 487.741 204.373 488.729 206.957C489.718 209.542 488.929 249.894 488.131 251.081C487.333 252.269 456.729 236.8 456.729 236.8L459.313 230.833L477.005 235.603L475.771 216.098" fill="white"/>
<path d="M479.988 202.777C479.988 202.777 487.741 204.373 488.729 206.957C489.718 209.542 488.929 249.894 488.131 251.081C487.333 252.269 456.729 236.8 456.729 236.8L459.313 230.833L477.005 235.603L475.771 216.098" stroke="black" stroke-linecap="round" stroke-linejoin="round"/>
<path d="M447.035 230.597C447.035 230.597 447.289 225.846 447.452 225.265" stroke="black" stroke-linecap="round" stroke-linejoin="round"/>
<path d="M448.622 230.851C448.622 230.851 449.039 226.435 449.202 225.682" stroke="black" stroke-linecap="round" stroke-linejoin="round"/>
<path d="M451.161 230.407L451.125 229.264L450.119 229.101" stroke="black" stroke-linecap="round" stroke-linejoin="round"/>
<path d="M281.067 358.48C281.067 358.48 279.879 362.325 280.804 364.175C281.729 366.025 283.724 366.433 286.499 366.17C289.273 365.907 300.019 363.513 301.479 363.25C302.559 363.031 303.62 362.728 304.652 362.343C301.14 361.186 297.557 360.256 293.925 359.56C289.156 358.762 282.001 357.438 282.001 357.438L281.067 358.48Z" fill="white" stroke="black" stroke-linecap="round" stroke-linejoin="round"/>
<path d="M282.001 357.401L281.094 358.462C281.094 358.462 279.906 362.307 280.831 364.157C281.529 365.553 282.817 366.125 284.603 366.206C283.699 365.363 283.038 364.292 282.69 363.105C282.434 362.188 282.393 361.223 282.57 360.287C282.748 359.352 283.14 358.469 283.715 357.71L282.001 357.401Z" fill="white" stroke="black" stroke-linecap="round" stroke-linejoin="round"/>
<path d="M290.788 327.868L286.018 342.712L270.512 341.524C270.512 341.524 279.925 350.401 286.834 354.509C293.744 358.617 306.176 362.452 313.992 360.602C321.809 358.753 340.661 341.252 340.661 341.252L324.103 341.524L320.712 327.478L290.788 327.868Z" fill="black" stroke="black" stroke-linecap="round" stroke-linejoin="round"/>
<path d="M304.652 255.452C304.652 255.452 294.914 257.266 293.726 260.222C292.538 263.178 293.526 270.196 294.324 274.73C295.122 279.264 297.099 279.899 293.726 283.281C290.352 286.664 293.526 290.236 296.709 292.023C299.892 293.809 304.262 291.433 305.251 289.438" fill="black"/>
<path d="M304.652 255.452C304.652 255.452 294.914 257.266 293.726 260.222C292.538 263.178 293.526 270.196 294.324 274.73C295.122 279.264 297.099 279.899 293.726 283.281C290.352 286.664 293.526 290.236 296.709 292.023C299.892 293.809 304.262 291.433 305.251 289.438" stroke="black" stroke-linecap="round" stroke-linejoin="round"/>
<path d="M279.217 311.7C279.217 311.7 274.048 326.018 274.574 327.206C275.1 328.394 288.221 342.449 288.62 342.449C289.019 342.449 291.141 343.773 291.803 343.773C292.204 343.812 292.609 343.766 292.991 343.637C293.738 343.508 294.492 343.421 295.249 343.374L296.709 344.697L301.478 344.172C301.478 344.172 298.432 340.064 297.099 339.529C295.766 338.994 290.08 338.341 290.08 338.341L282.826 324.821L286.535 316.342L279.217 311.7Z" fill="white" stroke="black" stroke-linecap="round" stroke-linejoin="round"/>
<path d="M296.709 292.757C296.709 292.757 286.236 293.546 285.175 293.818C284.767 293.88 284.378 294.031 284.035 294.26C283.692 294.488 283.403 294.789 283.189 295.142C282.79 295.804 275.935 310.911 275.935 310.911L287.161 317.666L288.62 313.958L290.788 327.868H320.866L321.663 314.357L324.583 318.464L336.77 309.714C336.77 309.714 324.982 293.156 321.663 292.757C318.345 292.358 296.709 292.757 296.709 292.757Z" fill="white" stroke="black" stroke-linecap="round" stroke-linejoin="round"/>
<path d="M300.944 285.992C300.944 285.992 300.282 289.311 299.883 290.526C299.484 291.741 296.709 292.784 296.709 292.784C296.709 292.784 299.094 299.277 305.45 300.737C310.111 301.798 313.539 297.418 314.201 296.493C314.863 295.568 315.525 292.249 315.525 292.249C315.525 292.249 312.605 289.737 312.478 289.202C312.351 288.667 312.07 286.482 312.07 286.482C312.07 286.482 304.924 287.851 300.944 285.992Z" fill="white" stroke="black" stroke-linecap="round" stroke-linejoin="round"/>
<path d="M303.864 262.607L296.111 273.143C296.111 273.143 292.928 268.773 292.928 272.944C292.928 277.115 294.741 278.113 295.313 278.312C295.884 278.512 296.709 278.711 296.709 278.711C297.539 281.602 299.036 284.257 301.08 286.464C304.263 289.638 307.427 290.236 310.22 288.649C313.013 287.062 314.99 282.084 314.99 282.084C314.99 282.084 316.985 275.528 316.586 272.345C316.187 269.163 307.037 261.419 303.864 262.607Z" fill="white" stroke="black" stroke-linecap="round" stroke-linejoin="round"/>
<path d="M303.111 276.344C303.21 276.979 302.938 277.55 302.503 277.614C302.068 277.677 301.596 277.224 301.533 276.58C301.469 275.936 301.714 275.374 302.149 275.311C302.585 275.247 303.02 275.701 303.111 276.344Z" fill="black"/>
<path d="M309.096 276.344C309.005 276.979 309.277 277.55 309.712 277.614C310.147 277.677 310.619 277.224 310.682 276.58C310.746 275.936 310.501 275.374 310.066 275.311C309.631 275.247 309.195 275.701 309.096 276.344Z" fill="black"/>
<path d="M305.015 282.238C305.056 282.383 305.125 282.518 305.218 282.635C305.312 282.753 305.428 282.85 305.56 282.922C305.692 282.994 305.837 283.039 305.986 283.054C306.135 283.069 306.286 283.053 306.43 283.009C306.735 282.967 307.02 282.833 307.248 282.626C307.476 282.419 307.636 282.148 307.708 281.848" stroke="black" stroke-linecap="round" stroke-linejoin="round"/>
<path d="M303.99 284.161C303.99 284.161 306.81 285.439 308.606 283.907" stroke="black" stroke-linecap="round" stroke-linejoin="round"/>
<path d="M300.019 274.413C300.019 274.413 300.526 272.744 303.736 273.388" stroke="black" stroke-linecap="round" stroke-linejoin="round"/>
<path d="M307.708 273.515C308.09 273.334 308.506 273.241 308.928 273.241C309.35 273.241 309.767 273.334 310.148 273.515" stroke="black" stroke-linecap="round" stroke-linejoin="round"/>
<path d="M303.664 261.809C303.664 261.809 313.639 279.5 314.201 282.084C314.763 284.669 311.018 287.851 313.004 290.245C314.99 292.639 317.973 295.613 317.973 295.613C317.973 295.613 313.439 297.427 314.99 298.796C316.54 300.165 324.728 297.998 327.113 295.613C329.498 293.229 326.125 289.647 325.3 287.452C324.475 285.258 327.286 280.298 326.497 273.742C325.708 267.186 317.148 256.64 312.179 254.854C307.209 253.067 303.238 255.253 301.651 257.238" fill="black"/>
<path d="M303.664 261.809C303.664 261.809 313.639 279.5 314.201 282.084C314.763 284.669 311.018 287.851 313.004 290.245C314.99 292.639 317.973 295.613 317.973 295.613C317.973 295.613 313.439 297.427 314.99 298.796C316.54 300.165 324.728 297.998 327.113 295.613C329.498 293.229 326.125 289.647 325.3 287.452C324.475 285.258 327.286 280.298 326.497 273.742C325.708 267.186 317.148 256.64 312.179 254.854C307.209 253.067 303.238 255.253 301.651 257.238" stroke="black" stroke-linecap="round" stroke-linejoin="round"/>
<path d="M302.322 288.006C302.322 288.006 300.916 290.064 301.941 290.726C302.966 291.388 304.117 292.14 304.117 292.14C304.117 292.14 303.736 295.768 304.507 296.883C305.278 297.998 308.606 299.603 308.606 299.603C308.606 299.603 314.636 307.429 318.871 311.79C323.105 316.152 331.438 324.748 333.497 324.748C335.555 324.748 338.366 320.387 338.112 316.923C337.858 313.459 327.721 308.97 325.798 307.429C323.876 305.887 312.07 298.361 312.07 298.361C312.07 298.361 311.562 292.331 311.689 291.052C311.816 289.774 311.562 287.425 312.07 286.518C312.577 285.612 311.045 286.138 310.256 287.425C309.834 288.038 309.57 288.745 309.485 289.484L302.322 288.006Z" fill="white" stroke="black" stroke-linecap="round" stroke-linejoin="round"/>
<path d="M325.989 324.957H285.311V349.476H325.989V324.957Z" fill="#B0B0B0" stroke="black" stroke-linecap="round" stroke-linejoin="round"/>
<path d="M305.985 356.758C305.985 356.758 325.59 348.678 330.894 344.57C336.199 340.463 341.631 338.468 344.804 339.402C347.978 340.336 349.846 346.42 348.386 350.401C346.926 354.382 335.528 356.232 330.632 357.955C325.735 359.677 310.737 362.189 310.737 362.189L303.845 358.344L305.985 356.758Z" fill="black" stroke="black" stroke-linecap="round" stroke-linejoin="round"/>
<path d="M307.31 357.021C307.31 357.021 312.478 358.217 317.112 359.541C321.745 360.865 322.553 361.001 322.553 361.001C322.553 361.001 333.688 358.743 335.411 358.344C337.134 357.945 340.706 359.405 341.105 361.926C341.504 364.447 340.579 366.034 339.292 366.696C338.004 367.358 335.71 367.358 334.123 367.358C332.536 367.358 323.65 366.56 322.335 366.451C321.02 366.342 306.167 363.531 306.167 363.531L307.31 357.021Z" fill="white" stroke="black" stroke-linecap="round" stroke-linejoin="round"/>
<path d="M322.189 366.469H322.28C323.604 366.596 332.481 367.376 334.068 367.376C335.655 367.376 337.904 367.376 339.237 366.714C340.57 366.052 341.486 364.465 341.05 361.944C340.615 359.424 337.079 357.973 335.356 358.363C333.633 358.752 322.525 361.029 322.525 361.029C322.525 361.029 323.64 364.402 322.189 366.469Z" fill="white" stroke="black" stroke-linecap="round" stroke-linejoin="round"/>
<path d="M305.985 356.758C299.889 354.724 294.059 351.966 288.621 348.542C279.879 342.975 268.345 338.568 266.758 338.468C265.171 338.368 261.064 342.186 262.115 346.683C263.167 351.181 272.09 356.232 273.777 356.894C275.463 357.556 299.221 363.912 303.99 363.912L305.985 356.758Z" fill="black" stroke="black" stroke-linecap="round" stroke-linejoin="round"/>
<path d="M302.803 355.298C302.803 355.298 300.681 362.452 300.545 362.987C300.409 363.522 300.155 364.175 301.207 364.574C302.545 364.968 303.929 365.191 305.323 365.236C306.112 365.236 306.647 363.422 306.91 362.724C307.485 360.865 307.883 358.955 308.098 357.021C308.098 355.833 305.849 355.434 305.051 355.207C304.305 355.068 303.536 355.099 302.803 355.298Z" fill="#D9D9D9" stroke="black" stroke-linecap="round" stroke-linejoin="round"/>
<path d="M216.314 86.9905C216.314 86.9905 216.776 87.4529 218.771 87.6071C220.766 87.7612 222.924 88.3779 225.228 87.7612C227.531 87.1446 228.909 86.8545 228.147 87.9154C227.386 88.9763 221.999 91.9052 221.229 92.2135C220.458 92.5218 218.01 92.676 217.393 93.2926C216.776 93.9092 216.314 95.5958 214.781 95.75C213.249 95.9041 210.329 90.3728 210.329 90.3728L215.09 86.3739L216.314 86.9905Z" fill="#B0B0B0" stroke="black" stroke-linecap="round" stroke-linejoin="round"/>
<path d="M168.545 79.7725C168.545 79.7725 181.294 68.8911 189.283 64.1033C197.272 59.3155 198.958 57.9644 200.037 58.2637C201.116 58.5629 218.173 86.2288 218.173 86.2288L209.259 93.483L197.897 71.3576C197.897 71.3576 181.766 86.8726 177.622 89.6383C173.478 92.404 165.172 84.4152 164.718 83.1911C164.265 81.9669 168.545 79.7725 168.545 79.7725Z" fill="black" stroke="black" stroke-linecap="round" stroke-linejoin="round"/>
<path d="M191.214 96.5117L213.068 96.6205L207.844 91.9506L188.331 91.3974L191.214 96.5117Z" fill="white" stroke="black" stroke-linecap="round" stroke-linejoin="round"/>
<path d="M213.068 96.6205L226.08 79.6456L218.382 77.2698L207.845 91.9506L213.068 96.6205Z" fill="white" stroke="black" stroke-linecap="round" stroke-linejoin="round"/>
<path d="M178.066 55.5071L185.138 72.5545L196.192 87.6071C196.192 87.6071 200.191 87.7612 200.953 87.9154C201.714 88.0695 203.873 88.2237 204.797 89.2937C205.557 90.4791 206.126 91.7765 206.484 93.1384L205.577 93.2926L203.764 91.2977L200.39 90.5269C200.39 90.5269 196.392 90.2186 195.476 89.7561C194.56 89.2937 190.099 85.9205 190.099 85.9205L175.345 67.4856L173.042 61.0294L178.066 55.5071Z" fill="#B0B0B0" stroke="black" stroke-linecap="round" stroke-linejoin="round"/>
<path d="M195.421 85.6575L192.048 88.3779L175.246 70.9133L173.514 61.8001L179.299 56.2688L185.229 70.478L195.421 85.6575Z" fill="#3EC13B" stroke="black" stroke-linecap="round" stroke-linejoin="round"/>
<path d="M171.156 140.908C171.156 140.908 165.162 150.121 165.017 151.354C164.938 151.933 165.063 152.521 165.371 153.017C165.679 153.514 166.15 153.888 166.704 154.074C167.928 154.537 170.385 155.452 171.927 156.223C173.468 156.994 176.842 158.835 179.299 158.835C181.756 158.835 182.373 158.064 181.602 157.302C180.832 156.541 176.225 152.533 175.763 151.617C175.068 150.08 174.504 148.488 174.076 146.856C174.076 146.394 175.454 142.096 175.454 142.096L171.156 140.908Z" fill="#B0B0B0" stroke="black" stroke-linecap="round" stroke-linejoin="round"/>
<path d="M148.731 77.2063C146.151 80.6382 144.945 84.9101 145.349 89.1849C146.256 97.0195 152.721 99.0235 158.561 100.71C164.401 102.397 186.517 108.236 186.517 108.236C186.517 108.236 180.224 114.838 177.912 120.369C175.599 125.9 169.47 141.878 169.47 141.878L180.677 147.028L195.122 117.558C195.122 117.558 198.65 111.265 199.266 108.037C199.883 104.809 198.958 102.814 198.65 102.351C198.341 101.889 179.299 88.9945 175.763 86.6822C173.735 85.3399 171.574 84.2096 169.315 83.309L148.731 77.2063Z" fill="black" stroke="black" stroke-linecap="round" stroke-linejoin="round"/>
<path d="M177.44 46.9017C177.44 46.9017 174.983 38.6047 171.093 37.5347C167.203 36.4647 162.796 40.255 159.304 44.4444C155.813 48.6337 156.385 58.4178 156.385 61.1835C156.385 63.9492 148.55 76.091 147.779 78.6934C147.779 78.6934 151.007 81.0057 157.31 82.384C161.504 83.2306 165.782 83.5926 170.059 83.4631C170.059 83.4631 171.283 74.7036 171.591 71.9379C171.9 69.1722 174.049 65.1824 175.735 64.1033C177.422 63.0243 179.118 59.9594 179.272 56.2688C179.426 52.5782 177.44 46.9017 177.44 46.9017Z" fill="#3EC13B" stroke="black" stroke-linecap="round" stroke-linejoin="round"/>
<path d="M190.053 87.4529L193.735 89.1396C193.735 89.1396 201.415 89.602 202.032 89.602C202.648 89.602 204.027 94.0543 204.027 94.0543C204.027 94.0543 203.564 94.5168 202.957 93.9092C202.349 93.3017 201.723 92.5218 201.723 92.5218C201.723 92.5218 197.888 92.8301 196.346 92.8301C194.805 92.8301 192.048 91.0166 192.048 91.0166L188.321 89.4479L190.053 87.4529Z" fill="#B0B0B0" stroke="black" stroke-linecap="round" stroke-linejoin="round"/>
<path d="M162.551 48.1259C162.551 48.1259 167.32 64.5658 169.007 68.7098C170.694 72.8538 175.001 77.9317 176.533 79.9267C178.066 81.9216 189.591 90.808 189.591 90.808L192.048 88.3506L179.807 70.0155C179.807 70.0155 173.613 45.5325 173.768 44.7254C173.922 43.9184 171.954 41.8056 170.54 41.4973" fill="#3EC13B"/>
<path d="M162.551 48.1259C162.551 48.1259 167.32 64.5658 169.007 68.7098C170.694 72.8538 175.001 77.9317 176.533 79.9267C178.066 81.9216 189.591 90.808 189.591 90.808L192.048 88.3506L179.807 70.0155C179.807 70.0155 173.613 45.5325 173.768 44.7254C173.922 43.9184 171.954 41.8056 170.54 41.4973" stroke="black" stroke-linecap="round" stroke-linejoin="round"/>
<path d="M199.267 21.2489C199.267 21.2489 199.729 26.7803 198.958 28.621C198.187 30.4618 194.669 31.5409 194.669 33.0733C194.669 34.6058 194.823 36.1473 194.053 36.7639C193.282 37.3805 191.903 36.7639 191.903 36.7639C191.631 37.6233 191.095 38.3751 190.371 38.913C189.138 39.8198 189.355 39.8198 189.355 39.8198C188.332 40.7952 187.009 41.396 185.601 41.5245C183.606 41.5245 182.074 38.7588 181.612 38.4505C181.149 38.1422 179.898 39.0127 178.692 39.8379C177.105 40.917 175.926 46.7476 175.926 46.7476C175.926 46.7476 171.474 38.2964 171.011 38.1422C170.549 37.9881 167.738 37.7977 167.738 37.7977C167.738 37.7977 172.272 35.5307 172.852 33.6899C173.432 31.8492 172.852 28.9293 172.852 28.3127C172.852 27.6961 173.16 21.4031 175.772 18.1749C178.383 14.9468 189.437 14.0309 193.581 13.7317C197.725 13.4325 199.267 21.2489 199.267 21.2489Z" fill="#B0B0B0" stroke="black" stroke-linecap="round" stroke-linejoin="round"/>
<path d="M199.266 21.2489C199.266 21.2489 197.734 20.3421 197.453 22.9355C197.172 25.5289 197.607 25.7012 195.757 25.8554C193.907 26.0095 193.146 26.472 193.146 27.551C193.146 28.6301 191.767 29.0835 190.688 29.0835C189.609 29.0835 188.693 27.551 188.077 29.0835C187.46 30.616 185.356 31.3867 183.933 31.3867C182.509 31.3867 182.4 32.2935 179.943 32.7741C177.485 33.2547 177.023 30.616 177.023 30.616C175.702 30.8931 174.367 31.0989 173.024 31.2326C172.117 31.2326 172.262 27.3969 172.262 27.3969C171.097 27.6161 169.912 27.7164 168.726 27.6961C167.819 27.551 167.039 25.3929 167.039 24.6312C167.039 23.8695 165.344 22.6272 165.344 21.5572V19.7437C165.344 19.7437 164.89 17.1321 165.19 16.5155C165.489 15.8989 167.466 14.6385 167.466 13.8768C167.466 13.1151 166.849 9.57866 167.919 8.19128C168.989 6.80391 170.077 5.47094 171.147 5.47094C172.217 5.47094 172.534 3.47602 174.221 3.16772C175.384 2.93054 176.571 2.8271 177.758 2.85941C178.982 2.85941 179.752 1.32696 181.131 1.04585C182.946 0.898272 184.773 1.10775 186.508 1.66246C187.125 1.97077 187.587 1.97077 188.811 1.50831C189.61 1.33572 190.438 1.34215 191.234 1.52714C192.031 1.71214 192.776 2.07112 193.418 2.57831C194.354 3.43706 195.538 3.97679 196.8 4.11984C197.571 4.11984 198.332 3.65738 199.411 5.6523C200.491 7.64722 202.331 7.95552 203.401 8.88044C203.85 9.27569 204.186 9.78243 204.375 10.3493C204.565 10.9162 204.601 11.5231 204.48 12.1086C204.326 13.1786 205.097 14.1035 205.714 15.3276C205.995 15.8254 206.13 16.3927 206.103 16.964C206.076 17.5353 205.887 18.0872 205.559 18.5558C204.943 19.3265 205.405 20.859 205.559 21.4756C205.714 22.0922 204.018 23.2892 202.64 23.7788C201.261 24.2685 199.883 24.9395 199.266 21.2489Z" fill="black" stroke="black" stroke-linecap="round" stroke-linejoin="round"/>
<path d="M194.234 31.958C193.898 32.5565 193.418 32.9283 193.155 32.7832C192.892 32.6381 192.937 32.0305 193.264 31.4321C193.59 30.8336 194.071 30.4618 194.343 30.6069C194.615 30.752 194.56 31.3595 194.234 31.958Z" fill="black"/>
<path d="M193.472 28.6664C193.472 28.6664 195.123 27.8412 196.084 30.3167" stroke="black" stroke-linecap="round" stroke-linejoin="round"/>
<path d="M74.0674 207.057C74.0674 207.057 76.8421 211.41 77.631 212.734C78.4199 214.058 78.293 216.977 78.293 216.977L81.4757 220.151L77.6945 223.071C77.6945 223.071 73.7137 220.423 72.9248 220.024C72.1273 219.665 71.2753 219.441 70.404 219.362C70.005 219.362 66.2962 214.72 66.2962 214.72L64.0928 213.223L65.3985 209.596L71.2291 211.319L74.0674 207.057Z" fill="#CFCFCF" stroke="black" stroke-linecap="round" stroke-linejoin="round"/>
<path d="M60.4927 207.629L73.6138 220.151L78.3835 215.98L66.6588 204.845L60.4927 207.629Z" fill="black" stroke="black" stroke-linecap="round" stroke-linejoin="round"/>
<path d="M72.1537 206.54C71.9351 206.553 71.727 206.638 71.5627 206.783C71.3983 206.928 71.2871 207.123 71.247 207.338C70.9749 208.789 70.5215 211.773 71.4011 212.026C71.5965 212.107 71.8083 212.139 72.0187 212.12C72.2291 212.101 72.4318 212.032 72.6098 211.918C72.7877 211.804 72.9356 211.649 73.0408 211.466C73.1461 211.283 73.2058 211.077 73.2147 210.866C73.3779 210.031 74.3753 207.719 74.0398 207.057C73.7587 206.531 73.0877 206.522 72.1537 206.54Z" fill="#CFCFCF" stroke="black" stroke-linecap="round" stroke-linejoin="round"/>
<path d="M63.2765 209.424C63.2765 209.424 61.463 212.797 62.8776 213.795C64.2921 214.792 64.274 212.797 64.6911 211.609C65.1082 210.421 65.0629 208.825 63.2765 209.424Z" fill="#CFCFCF" stroke="black" stroke-linecap="round" stroke-linejoin="round"/>
<path d="M66.6591 212.797C66.6591 212.797 65.0632 215.98 65.6616 216.977C66.2601 217.975 67.0581 216.977 67.4752 215.98C67.8199 215.371 68.0243 214.692 68.0737 213.994C68.0827 212.253 66.6591 212.797 66.6591 212.797Z" fill="#CFCFCF" stroke="black" stroke-linecap="round" stroke-linejoin="round"/>
<path d="M68.3089 214.221C68.3089 214.221 66.722 217.395 67.3114 218.392C67.9008 219.389 68.7079 218.392 69.125 217.395C69.4721 216.787 69.6738 216.107 69.7144 215.409C69.7416 213.668 68.3089 214.221 68.3089 214.221Z" fill="#CFCFCF" stroke="black" stroke-linecap="round" stroke-linejoin="round"/>
<path d="M70.1951 215.79C70.1951 215.79 68.6082 218.972 69.2067 219.97C69.8051 220.967 70.594 219.97 71.0202 218.972C71.3649 218.363 71.5694 217.685 71.6187 216.986C71.6278 215.245 70.1951 215.79 70.1951 215.79Z" fill="#CFCFCF" stroke="black" stroke-linecap="round" stroke-linejoin="round"/>
<path d="M81.1672 218.301L75.4727 224.132L90.5705 236.455L92.0305 226.254L81.1672 218.301Z" fill="#3EC13B" stroke="black" stroke-linecap="round" stroke-linejoin="round"/>
<path d="M88.5214 243.519C88.5214 243.519 85.656 254.065 85.801 255.679C85.9096 256.627 85.9702 257.581 85.9824 258.535C85.9824 258.535 77.9302 268.374 73.8225 277.133C69.7148 285.893 69.3521 290.907 70.6034 291.796C71.8548 292.684 88.8388 300.202 90.6251 300.564L92.4387 300.918L106.947 305.924L108.38 307.538L111.236 306.631C112.488 305.914 113.204 301.09 113.567 299.123C113.929 297.155 114.818 296.257 113.92 296.085C113.089 295.987 112.249 295.987 111.418 296.085C111.418 296.085 111.953 295.006 111.064 295.006H108.525C108.525 295.006 96.7368 290.182 94.76 289.112C92.7833 288.042 87.7869 285.358 87.7869 285.358L99.4572 276.961C99.4572 276.961 113.585 268.736 115.552 265.336C117.52 261.936 118.59 255.497 118.59 252.813C118.59 250.129 99.0944 241.025 95.7031 241.025C92.3117 241.025 88.6937 241.733 88.5214 243.519Z" fill="black" stroke="black" stroke-linecap="round" stroke-linejoin="round"/>
<path d="M113.911 296.094C113.911 296.094 123.886 296.448 125.355 297.164C126.824 297.88 126.787 300.383 126.787 302.169C126.787 303.956 125.355 308.073 125.717 310.04C126.08 312.008 126.144 314.347 126.425 317.195C126.969 322.554 125.4 323.116 124.466 322.917C121.066 322.2 120.703 318.083 119.098 314.157C117.493 310.231 116.595 308.073 116.595 308.073L111.245 306.622C111.245 306.622 112.306 298.778 113.911 296.094Z" fill="white" stroke="black" stroke-linecap="round" stroke-linejoin="round"/>
<path d="M125.354 297.164C124.532 296.896 123.679 296.732 122.815 296.674C123.533 299.404 123.904 302.213 123.922 305.035C123.922 310.575 125.001 317.013 124.466 321.13C124.375 321.792 124.284 322.345 124.194 322.835C124.283 322.868 124.374 322.895 124.466 322.917C125.373 323.116 126.968 322.554 126.424 317.195C126.143 314.347 126.071 312.008 125.717 310.04C125.363 308.073 126.787 303.956 126.787 302.169C126.787 300.383 126.787 297.88 125.354 297.164Z" fill="white" stroke="black" stroke-linecap="round" stroke-linejoin="round"/>
<path d="M90.7067 258.562C90.7067 258.562 92.8921 272.082 92.0941 280.026C91.2961 287.969 91.9037 305.67 92.6926 310.639C93.4815 315.608 92.8921 330.515 92.8921 333.1C92.9177 334.363 92.851 335.627 92.6926 336.881C92.6926 336.881 90.5072 336.681 90.7067 337.869C90.8307 338.658 90.8974 339.455 90.9062 340.254C92.2941 341.361 93.9315 342.111 95.6759 342.44C98.6592 343.038 101.842 343.636 102.431 342.839C103.021 342.041 102.83 339.465 102.83 339.465C103.156 339.161 103.413 338.791 103.585 338.38C103.757 337.969 103.84 337.526 103.828 337.08V334.641C103.828 334.641 106.612 323.116 106.412 316.161C106.213 309.206 104.816 305.225 105.215 303.466C105.614 301.707 114.555 274.449 114.555 274.449C114.555 274.449 117.339 268.483 117.937 264.71C118.359 261.428 117.594 258.102 115.779 255.334C114.582 253.747 96.3016 248.778 96.3016 248.778" fill="black"/>
<path d="M90.7067 258.562C90.7067 258.562 92.8921 272.082 92.0941 280.026C91.2961 287.969 91.9037 305.67 92.6926 310.639C93.4815 315.608 92.8921 330.515 92.8921 333.1C92.9177 334.363 92.851 335.627 92.6926 336.881C92.6926 336.881 90.5072 336.681 90.7067 337.869C90.8307 338.658 90.8974 339.455 90.9062 340.254C92.2941 341.361 93.9315 342.111 95.6759 342.44C98.6592 343.038 101.842 343.636 102.431 342.839C103.021 342.041 102.83 339.465 102.83 339.465C103.156 339.161 103.413 338.791 103.585 338.38C103.757 337.969 103.84 337.526 103.828 337.08V334.641C103.828 334.641 106.612 323.116 106.412 316.161C106.213 309.206 104.816 305.225 105.215 303.466C105.614 301.707 114.555 274.449 114.555 274.449C114.555 274.449 117.339 268.483 117.937 264.71C118.359 261.428 117.594 258.102 115.779 255.334C114.582 253.747 96.3016 248.778 96.3016 248.778" stroke="black" stroke-linecap="round" stroke-linejoin="round"/>
<path d="M95.7484 196.647C95.7484 196.647 90.879 206.821 90.879 213.169C90.879 219.516 88.9657 230.28 88.9657 233.227C88.9657 236.174 86.3088 240.608 87.4877 243.147C88.6665 245.686 95.4492 245.65 96.0386 245.65C96.628 245.65 100.473 245.795 101.207 245.505C101.942 245.215 103.275 220.868 103.275 215.264C103.275 209.66 103.565 195.314 103.42 193.573C103.275 191.832 97.5166 193.401 95.7484 196.647Z" fill="white" stroke="black" stroke-linecap="round" stroke-linejoin="round"/>
<path d="M103.828 186.564C99.8584 193.306 97.4162 200.837 96.6733 208.626C95.2768 221.947 91.5046 245.595 94.2884 248.18C97.0722 250.764 104.027 252.55 107.201 254.146C110.375 255.742 115.552 258.317 117.339 259.315C119.125 260.312 122.108 259.115 122.108 259.115C122.108 259.115 124.493 238.042 123.704 228.702C122.915 219.362 121.719 203.657 117.937 196.103C114.156 188.55 104.816 185.567 103.828 186.564Z" fill="#3EC13B" stroke="black" stroke-linecap="round" stroke-linejoin="round"/>
<path d="M104.227 254.146L101.842 256.731L105.813 262.09L108.198 257.52L104.227 254.146Z" fill="#CFCFCF" stroke="black" stroke-linecap="round" stroke-linejoin="round"/>
<path d="M104.227 200.075C104.227 200.075 100.844 208.825 102.631 215.98C104.417 223.134 109.196 238.042 109.196 238.042L103.229 254.146L109.196 259.514C109.196 259.514 121.718 238.84 121.718 236.056C121.718 233.272 118.935 204.845 117.738 201.072C116.541 197.3 114.555 193.719 111.581 193.719" fill="#3EC13B"/>
<path d="M104.227 200.075C104.227 200.075 100.844 208.825 102.631 215.98C104.417 223.134 109.196 238.042 109.196 238.042L103.229 254.146L109.196 259.514C109.196 259.514 121.718 238.84 121.718 236.056C121.718 233.272 118.935 204.845 117.738 201.072C116.541 197.3 114.555 193.719 111.581 193.719" stroke="black" stroke-linecap="round" stroke-linejoin="round"/>
<path d="M91.7039 340.807C91.7039 340.807 90.3074 341.406 90.3074 342.394C90.3074 343.383 89.1195 348.742 89.1195 348.742C89.1195 348.742 79.3807 352.115 77.5853 352.514C75.7899 352.913 75.2005 356.096 75.7717 357.048C76.343 358 82.9262 358.861 88.6933 359.043C94.4605 359.224 101.216 359.242 101.814 358.245C102.413 357.247 102.204 347.508 102.204 347.508L102.404 342.739C98.7846 342.431 95.2022 341.785 91.7039 340.807Z" fill="white" stroke="black" stroke-linecap="round" stroke-linejoin="round"/>
<path d="M75.6177 356.549C75.6435 356.743 75.705 356.931 75.799 357.102C76.3975 358.1 82.9535 358.916 88.7207 359.097C94.4878 359.278 101.243 359.297 101.842 358.299C101.976 357.942 102.052 357.565 102.068 357.184C93.5357 358.644 81.2306 357.311 75.6177 356.549Z" fill="white" stroke="black" stroke-linecap="round" stroke-linejoin="round"/>
<path d="M75.4002 162.117C75.4002 162.117 71.229 165.889 71.628 171.258C72.027 176.626 72.8159 178.612 73.4415 179.21C74.1887 179.807 74.9867 180.338 75.8264 180.797C75.8264 180.797 75.4274 186.564 76.6243 186.963C77.732 187.201 78.8695 187.268 79.9976 187.162C79.9976 187.162 83.1804 192.921 84.9667 193.12C86.7531 193.32 90.3349 189.747 90.3349 189.747L96.3015 195.106L103.057 184.769L99.2848 180.597C99.2848 180.597 101.098 169.471 98.4868 163.505C95.8753 157.538 80.4147 154.564 75.4002 162.117Z" fill="#CFCFCF" stroke="black" stroke-linecap="round" stroke-linejoin="round"/>
<path d="M90.3076 189.738L93.0824 186.936L92.6471 191.053L90.3076 189.738Z" fill="black" stroke="black" stroke-linecap="round" stroke-linejoin="round"/>
<path d="M93.1095 179.799C93.1095 179.799 96.655 180.071 99.3663 179.954C99.6927 177.496 100.69 168.61 98.4595 163.505C95.8752 157.538 80.3239 154.564 75.4001 162.117C73.9385 163.556 72.8278 165.312 72.1538 167.25C72.4349 167.712 72.8339 167.975 73.4142 167.476C74.8016 166.288 78.9819 165.889 79.3808 168.075C79.7798 170.26 79.3808 172.255 81.7657 171.657C83.0055 171.262 84.3466 171.333 85.5379 171.856C85.5379 171.856 87.1247 174.64 88.1222 174.041C89.1197 173.443 88.3217 172.228 89.5187 170.859C90.7156 169.489 95.2767 171.657 95.4762 174.64C95.6757 177.623 93.1095 179.799 93.1095 179.799Z" fill="black" stroke="black" stroke-linecap="round" stroke-linejoin="round"/>
<path d="M79.5077 179.092C79.943 179.618 80.0518 180.244 79.7435 180.498C79.4352 180.752 78.8367 180.498 78.4105 179.999C77.9844 179.5 77.8665 178.847 78.1748 178.593C78.4831 178.34 79.0272 178.566 79.5077 179.092Z" fill="black"/>
<path d="M76.5063 178.385C76.5063 178.385 76.0257 176.571 78.3198 176.571" stroke="black" stroke-linecap="round" stroke-linejoin="round"/>
<path d="M102.531 182.928L93.98 195.904L97.8157 200.918L106.367 185.73L102.531 182.928Z" fill="white" stroke="black" stroke-linecap="round" stroke-linejoin="round"/>
</svg>
