<svg width="40" height="40" viewBox="0 0 40 40" fill="none" xmlns="http://www.w3.org/2000/svg">
<g clip-path="url(#clip0_55_320)">
<path d="M20 39.6976C30.8757 39.6976 39.6923 30.8787 39.6923 20C39.6923 9.12138 30.8757 0.30249 20 0.30249C9.12422 0.30249 0.307678 9.12138 0.307678 20C0.307678 30.8787 9.12422 39.6976 20 39.6976Z" fill="#3EC13B"/>
<path d="M20.0449 8.43701C13.639 8.43701 8.4458 13.6299 8.4458 20.0361C8.4458 25.4862 12.2061 30.0558 17.2729 31.2989C17.2707 29.865 17.2667 27.1373 17.2655 27.0376C17.2446 27.0241 15.0667 28.2998 13.9556 26.0696C13.8215 25.7939 13.552 24.8724 12.8766 24.3564C12.8526 24.3364 12.3538 24.0813 12.308 23.8315C12.3027 23.7967 12.3403 23.7235 12.3892 23.7053C12.4403 23.6862 13.2612 23.3493 14.1763 24.5099C14.452 24.8985 15.0747 26.389 17.2544 25.4678C17.3123 25.2382 17.3547 24.8635 17.8258 24.4373C14.58 24.0499 13.3938 22.9385 12.9341 20.1635C12.6467 18.2715 13.1987 16.6989 14.0283 15.9229C13.9027 15.7576 13.4886 14.3752 14.1323 12.913C14.8298 12.7733 16.1089 13.2742 17.2332 14.0844C18.8187 13.5112 21.7963 13.6598 22.8615 14.0844C23.368 13.6653 25.176 12.6872 25.9516 12.9152C26.1796 13.4958 26.5089 14.9022 26.0541 15.9275C27.0646 16.9675 27.3492 18.3106 27.167 19.9601C26.9436 22.4598 25.6787 24.1429 22.24 24.4373C22.8129 24.8416 23.339 25.3967 23.339 26.3379C23.339 27.3493 23.3384 29.7712 23.3378 31.1576C28.1393 29.7382 31.6443 25.2979 31.6443 20.0358C31.6443 13.6299 26.451 8.43701 20.0449 8.43701Z" fill="white"/>
</g>
<defs>
<clipPath id="clip0_55_320">
<rect width="40" height="40" fill="white"/>
</clipPath>
</defs>
</svg>
