<svg width="38" height="38" viewBox="0 0 38 38" fill="none" xmlns="http://www.w3.org/2000/svg">
<path d="M32.8125 4.6875V7.8125C32.8125 10.7133 31.6602 13.4953 29.609 15.5465C27.5578 17.5977 24.7758 18.75 21.875 18.75H20.3125V20.3125H28.125V31.25C28.125 32.0788 27.7958 32.8737 27.2097 33.4597C26.6237 34.0458 25.8288 34.375 25 34.375H12.5C11.6712 34.375 10.8763 34.0458 10.2903 33.4597C9.70424 32.8737 9.375 32.0788 9.375 31.25V20.3125H17.1875V15.625C17.1875 12.7242 18.3398 9.9422 20.391 7.89102C22.4422 5.83984 25.2242 4.6875 28.125 4.6875H32.8125ZM8.59375 3.125C10.4687 3.12348 12.3166 3.57248 13.9818 4.43418C15.647 5.29589 17.0808 6.54507 18.1625 8.07657C16.5115 10.2462 15.6199 12.8986 15.625 15.625V17.1875H14.8437C11.7357 17.1875 8.75503 15.9529 6.55734 13.7552C4.35965 11.5575 3.125 8.57676 3.125 5.46875V3.125H8.59375Z" fill="#3EC13B"/>
</svg>
