<svg width="38" height="38" viewBox="0 0 38 38" fill="none" xmlns="http://www.w3.org/2000/svg">
<path d="M15.625 25.7812L20.3125 27.3437C20.3125 27.3437 32.0312 25 33.5937 25C35.1562 25 35.1562 26.5625 33.5937 28.125C32.0312 29.6875 26.5625 34.375 21.875 34.375C17.1875 34.375 14.0625 32.0312 10.9375 32.0312C7.8125 32.0312 3.125 32.0312 3.125 32.0312" stroke="#3EC13B" stroke-width="4" stroke-linecap="round" stroke-linejoin="round"/>
<path d="M3.125 22.6562C4.6875 21.0937 7.8125 18.75 10.9375 18.75C14.0625 18.75 21.4844 21.875 22.6563 23.4375C23.8281 25 20.3125 27.3437 20.3125 27.3437" stroke="#3EC13B" stroke-width="4" stroke-linecap="round" stroke-linejoin="round"/>
<path d="M26.5625 19.5312C27.8569 19.5312 28.9062 18.4819 28.9062 17.1875C28.9062 15.8931 27.8569 14.8438 26.5625 14.8438C25.2681 14.8438 24.2188 15.8931 24.2188 17.1875C24.2188 18.4819 25.2681 19.5312 26.5625 19.5312Z" fill="#3EC13B" stroke="#3EC13B" stroke-width="4"/>
<path d="M17.1875 14.0625C18.4819 14.0625 19.5312 13.0132 19.5312 11.7188C19.5312 10.4243 18.4819 9.375 17.1875 9.375C15.8931 9.375 14.8438 10.4243 14.8438 11.7188C14.8438 13.0132 15.8931 14.0625 17.1875 14.0625Z" fill="#3EC13B" stroke="#3EC13B" stroke-width="4"/>
<path d="M26.5625 7.8125C27.8569 7.8125 28.9062 6.76317 28.9062 5.46875C28.9062 4.17433 27.8569 3.125 26.5625 3.125C25.2681 3.125 24.2188 4.17433 24.2188 5.46875C24.2188 6.76317 25.2681 7.8125 26.5625 7.8125Z" fill="#3EC13B" stroke="#3EC13B" stroke-width="4"/>
</svg>
