<svg width="40" height="40" viewBox="0 0 40 40" fill="none" xmlns="http://www.w3.org/2000/svg">
<g clip-path="url(#clip0_55_332)">
<path d="M20 39.6976C30.8757 39.6976 39.6923 30.8787 39.6923 20C39.6923 9.12138 30.8757 0.30249 20 0.30249C9.12422 0.30249 0.307678 9.12138 0.307678 20C0.307678 30.8787 9.12422 39.6976 20 39.6976Z" fill="#3EC13B"/>
<path d="M26.7249 10.9646H12.8588C11.5406 10.9646 10.4612 12.0403 10.4612 13.3557V27.2277C10.4612 28.5424 11.5406 29.6175 12.8588 29.6175H26.7249C28.0437 29.6175 29.1215 28.5428 29.1215 27.2277V13.3554C29.1219 12.0403 28.044 10.9646 26.7249 10.9646ZM23.7929 13.8917C23.7929 13.5031 24.1108 13.1843 24.5015 13.1843H26.1948C26.5837 13.1843 26.9028 13.5031 26.9028 13.8917V15.5821C26.9028 15.9714 26.5837 16.2889 26.1948 16.2889H24.5015C24.1108 16.2889 23.7929 15.9714 23.7929 15.5821V13.8917ZM19.7917 16.2938C21.9994 16.2938 23.7892 18.0812 23.7892 20.2864C23.7892 22.4914 21.9994 24.2788 19.7917 24.2788C17.5834 24.2788 15.7935 22.4914 15.7935 20.2864C15.7935 18.0812 17.5834 16.2938 19.7917 16.2938ZM27.3579 27.0972C27.3579 27.5049 27.0249 27.8363 26.6163 27.8363H12.9874C12.5794 27.8363 12.2459 27.5049 12.2459 27.0972V18.9517H14.1683C14.068 19.3788 14.0086 19.8218 14.0086 20.2794C14.0086 23.4723 16.6009 26.0606 19.7985 26.0606C22.996 26.0606 25.5874 23.4723 25.5874 20.2794C25.5874 19.8209 25.5225 19.3791 25.4212 18.9517H27.3575V27.0972H27.3579Z" fill="white"/>
</g>
<defs>
<clipPath id="clip0_55_332">
<rect width="40" height="40" fill="white"/>
</clipPath>
</defs>
</svg>
