<svg width="40" height="40" viewBox="0 0 40 40" fill="none" xmlns="http://www.w3.org/2000/svg">
<g clip-path="url(#clip0_55_326)">
<path d="M20 39.6976C30.8757 39.6976 39.6923 30.8787 39.6923 20C39.6923 9.12138 30.8757 0.30249 20 0.30249C9.12422 0.30249 0.307678 9.12138 0.307678 20C0.307678 30.8787 9.12422 39.6976 20 39.6976Z" fill="#3EC13B"/>
<path d="M12.2492 27.1575H15.8141V14.679H12.2492V27.1575ZM25.8593 15.3904C24.5323 14.6452 22.5735 14.5827 21.1621 15.2264V14.6793H17.5972V27.1578H21.1621V19.1766L22.6313 18.4695C22.992 18.2963 23.7812 18.3117 24.1157 18.5C24.3677 18.6415 24.727 19.2243 24.727 19.5818V27.1575H28.2926V19.5818C28.2929 17.943 27.2692 16.1797 25.8593 15.3904ZM14.032 8.8855C12.8 8.8855 11.8036 9.88304 11.8036 11.1141C11.8036 12.3449 12.8 13.3421 14.032 13.3421C15.2646 13.3421 16.2603 12.3449 16.2603 11.1141C16.2603 9.88304 15.2643 8.8855 14.032 8.8855Z" fill="white"/>
</g>
<defs>
<clipPath id="clip0_55_326">
<rect width="40" height="40" fill="white"/>
</clipPath>
</defs>
</svg>
