<svg width="109" height="36" viewBox="0 0 109 36" fill="none" xmlns="http://www.w3.org/2000/svg">
<path d="M11.928 22.808H5.256L4.152 26H0.624L6.648 9.224H10.56L16.584 26H13.032L11.928 22.808ZM11.016 20.12L8.592 13.112L6.168 20.12H11.016ZM24.0437 12.488C25.0357 12.488 25.9077 12.688 26.6597 13.088C27.4117 13.472 28.0037 13.976 28.4357 14.6V12.704H31.8197V26.096C31.8197 27.328 31.5717 28.424 31.0757 29.384C30.5797 30.36 29.8357 31.128 28.8437 31.688C27.8517 32.264 26.6517 32.552 25.2437 32.552C23.3557 32.552 21.8037 32.112 20.5877 31.232C19.3877 30.352 18.7077 29.152 18.5477 27.632H21.8837C22.0597 28.24 22.4357 28.72 23.0117 29.072C23.6037 29.44 24.3157 29.624 25.1477 29.624C26.1237 29.624 26.9157 29.328 27.5237 28.736C28.1317 28.16 28.4357 27.28 28.4357 26.096V24.032C28.0037 24.656 27.4037 25.176 26.6357 25.592C25.8837 26.008 25.0197 26.216 24.0437 26.216C22.9237 26.216 21.8997 25.928 20.9717 25.352C20.0437 24.776 19.3077 23.968 18.7637 22.928C18.2357 21.872 17.9717 20.664 17.9717 19.304C17.9717 17.96 18.2357 16.768 18.7637 15.728C19.3077 14.688 20.0357 13.888 20.9477 13.328C21.8757 12.768 22.9077 12.488 24.0437 12.488ZM28.4357 19.352C28.4357 18.536 28.2757 17.84 27.9557 17.264C27.6357 16.672 27.2037 16.224 26.6597 15.92C26.1157 15.6 25.5317 15.44 24.9077 15.44C24.2837 15.44 23.7077 15.592 23.1797 15.896C22.6517 16.2 22.2197 16.648 21.8837 17.24C21.5637 17.816 21.4037 18.504 21.4037 19.304C21.4037 20.104 21.5637 20.808 21.8837 21.416C22.2197 22.008 22.6517 22.464 23.1797 22.784C23.7237 23.104 24.2997 23.264 24.9077 23.264C25.5317 23.264 26.1157 23.112 26.6597 22.808C27.2037 22.488 27.6357 22.04 27.9557 21.464C28.2757 20.872 28.4357 20.168 28.4357 19.352ZM38.4613 14.768C38.8933 14.064 39.4533 13.512 40.1413 13.112C40.8453 12.712 41.6453 12.512 42.5413 12.512V16.04H41.6533C40.5973 16.04 39.7973 16.288 39.2533 16.784C38.7253 17.28 38.4613 18.144 38.4613 19.376V26H35.1013V12.704H38.4613V14.768ZM50.7084 26.216C49.4284 26.216 48.2764 25.936 47.2524 25.376C46.2284 24.8 45.4204 23.992 44.8284 22.952C44.2524 21.912 43.9644 20.712 43.9644 19.352C43.9644 17.992 44.2604 16.792 44.8524 15.752C45.4604 14.712 46.2844 13.912 47.3244 13.352C48.3644 12.776 49.5244 12.488 50.8044 12.488C52.0844 12.488 53.2444 12.776 54.2844 13.352C55.3244 13.912 56.1404 14.712 56.7324 15.752C57.3404 16.792 57.6444 17.992 57.6444 19.352C57.6444 20.712 57.3324 21.912 56.7084 22.952C56.1004 23.992 55.2684 24.8 54.2124 25.376C53.1724 25.936 52.0044 26.216 50.7084 26.216ZM50.7084 23.288C51.3164 23.288 51.8844 23.144 52.4124 22.856C52.9564 22.552 53.3884 22.104 53.7084 21.512C54.0284 20.92 54.1884 20.2 54.1884 19.352C54.1884 18.088 53.8524 17.12 53.1804 16.448C52.5244 15.76 51.7164 15.416 50.7564 15.416C49.7964 15.416 48.9884 15.76 48.3324 16.448C47.6924 17.12 47.3724 18.088 47.3724 19.352C47.3724 20.616 47.6844 21.592 48.3084 22.28C48.9484 22.952 49.7484 23.288 50.7084 23.288Z" fill="white"/>
<path d="M74.4371 26H71.0771L63.4691 14.504V26H60.1091V9.224H63.4691L71.0771 20.744V9.224H74.4371V26ZM90.3096 12.704V26H86.9256V24.32C86.4936 24.896 85.9256 25.352 85.2216 25.688C84.5336 26.008 83.7816 26.168 82.9656 26.168C81.9256 26.168 81.0056 25.952 80.2056 25.52C79.4056 25.072 78.7736 24.424 78.3096 23.576C77.8616 22.712 77.6376 21.688 77.6376 20.504V12.704H80.9976V20.024C80.9976 21.08 81.2616 21.896 81.7896 22.472C82.3176 23.032 83.0376 23.312 83.9496 23.312C84.8776 23.312 85.6056 23.032 86.1336 22.472C86.6616 21.896 86.9256 21.08 86.9256 20.024V12.704H90.3096ZM96.9848 14.648C97.4168 14.008 98.0088 13.488 98.7608 13.088C99.5288 12.688 100.401 12.488 101.377 12.488C102.513 12.488 103.537 12.768 104.449 13.328C105.377 13.888 106.105 14.688 106.633 15.728C107.177 16.752 107.449 17.944 107.449 19.304C107.449 20.664 107.177 21.872 106.633 22.928C106.105 23.968 105.377 24.776 104.449 25.352C103.537 25.928 102.513 26.216 101.377 26.216C100.385 26.216 99.5128 26.024 98.7608 25.64C98.0248 25.24 97.4328 24.728 96.9848 24.104V26H93.6248V8.24H96.9848V14.648ZM104.017 19.304C104.017 18.504 103.849 17.816 103.513 17.24C103.193 16.648 102.761 16.2 102.217 15.896C101.689 15.592 101.113 15.44 100.489 15.44C99.8808 15.44 99.3048 15.6 98.7608 15.92C98.2328 16.224 97.8008 16.672 97.4648 17.264C97.1448 17.856 96.9848 18.552 96.9848 19.352C96.9848 20.152 97.1448 20.848 97.4648 21.44C97.8008 22.032 98.2328 22.488 98.7608 22.808C99.3048 23.112 99.8808 23.264 100.489 23.264C101.113 23.264 101.689 23.104 102.217 22.784C102.761 22.464 103.193 22.008 103.513 21.416C103.849 20.824 104.017 20.12 104.017 19.304Z" fill="#3EC13B"/>
</svg>
