<svg width="39" height="40" viewBox="0 0 39 40" fill="none" xmlns="http://www.w3.org/2000/svg">
<g clip-path="url(#clip0_55_312)">
<path d="M38.75 0H0.583313V40H38.75V0Z" fill="#3EC13B"/>
<path d="M23.5796 22.9706C23.2485 22.6452 22.7312 22.6019 22.3173 22.8621L21.9448 23.1007L20.8688 23.8163C20.455 24.0983 19.9169 23.9898 19.6686 23.5995L18.1166 21.0621L16.5853 18.5464C16.3371 18.156 16.4819 17.5922 16.8957 17.3102L17.9717 16.5946L18.3443 16.356C18.7581 16.0741 18.9443 15.5536 18.7995 15.1198L17.1441 10.4354C16.9579 9.89326 16.3371 9.65471 15.7783 9.93664L15.6542 10.0017L13.6469 11.1294C12.695 11.6282 12.0742 12.6475 12.1364 13.6885C12.2605 15.7705 12.902 19.544 15.0747 23.1007C17.2475 26.6573 20.2894 28.8911 22.0483 29.8887C22.9381 30.3875 24.0762 30.2357 24.904 29.5417L26.725 28.0887L26.8284 28.0019C27.3044 27.6116 27.3664 26.9176 26.9526 26.5055L23.5796 22.9706Z" fill="white"/>
<path d="M17.4338 11.2595L17.1441 10.4354C16.9578 9.89326 16.3371 9.65471 15.7783 9.93664L15.6542 10.0017L13.6469 11.1294C12.695 11.6282 12.0742 12.6475 12.1364 13.6885C12.1984 14.8162 12.426 16.4211 12.9434 18.2211C13.4813 16.0741 14.6816 13.2764 17.4338 11.2595Z" fill="white"/>
<path d="M23.1863 30.8214C22.6896 30.8214 22.1931 30.6913 21.7585 30.4527C20.7239 29.8672 17.1232 27.6334 14.5573 23.4478C12.0949 19.4357 11.6189 15.3152 11.5154 13.732C11.4327 12.4308 12.1776 11.1513 13.3571 10.544L15.5092 9.35123C15.7368 9.22111 16.0058 9.17773 16.2542 9.17773C16.9164 9.17773 17.4957 9.5898 17.7234 10.2187L19.3581 14.8814C19.6065 15.6188 19.3168 16.4646 18.6546 16.8983L17.2061 17.8742C17.1439 17.9176 17.0819 18.0044 17.0612 18.0694C17.0405 18.1128 17.0612 18.1562 17.0819 18.1995L20.1858 23.2743C20.2272 23.3394 20.31 23.3611 20.3514 23.3611C20.3928 23.3611 20.4548 23.3611 20.5169 23.296L21.9654 22.3201C22.2551 22.1249 22.5655 22.0382 22.8966 22.0382C23.3311 22.0382 23.7243 22.2116 24.014 22.5153L27.387 26.0286C27.6974 26.3539 27.8422 26.7659 27.8215 27.243C27.8008 27.7202 27.5733 28.1973 27.2008 28.5009L27.0973 28.5876L25.2763 30.0624C24.6969 30.5395 23.952 30.8214 23.1863 30.8214ZM16.2542 10.479C16.1921 10.479 16.1093 10.5006 16.0472 10.5223L15.9231 10.5874L13.9158 11.6934C13.1709 12.0838 12.6949 12.8645 12.7364 13.6453C12.8191 15.12 13.2743 18.9803 15.5713 22.7538C17.9717 26.6575 21.3447 28.7611 22.3172 29.3033C22.5655 29.4551 22.8552 29.5202 23.1656 29.5202C23.6415 29.5202 24.1176 29.3467 24.49 29.0214L26.4144 27.4599C26.5179 27.3732 26.58 27.2647 26.58 27.1346C26.58 27.0695 26.58 26.9828 26.4973 26.9177L23.145 23.4261C23.0415 23.3177 22.8139 23.296 22.6483 23.4044L21.1998 24.3804C20.9514 24.5539 20.6618 24.6406 20.3514 24.6406C19.8547 24.6406 19.3995 24.3804 19.1512 23.9683L16.0472 18.8935C15.8403 18.5682 15.7782 18.1779 15.861 17.7875C15.9438 17.3754 16.1921 17.0068 16.5439 16.7682L17.9924 15.7923C18.1579 15.6838 18.2407 15.4887 18.1786 15.3152L16.5646 10.6525C16.5232 10.5223 16.3783 10.479 16.2542 10.479Z" fill="#3EC13B"/>
</g>
<defs>
<clipPath id="clip0_55_312">
<rect x="0.583313" width="38.1667" height="40" rx="19.0833" fill="white"/>
</clipPath>
</defs>
</svg>
