<svg width="40" height="40" viewBox="0 0 40 40" fill="none" xmlns="http://www.w3.org/2000/svg">
<g clip-path="url(#clip0_55_338)">
<path d="M20 39.6976C30.8757 39.6976 39.6923 30.8787 39.6923 20C39.6923 9.12138 30.8757 0.30249 20 0.30249C9.12422 0.30249 0.307678 9.12138 0.307678 20C0.307678 30.8787 9.12422 39.6976 20 39.6976Z" fill="#3EC13B"/>
<path d="M28.8148 14.8945C30.2184 13.9778 30.3424 12.7206 30.3424 12.7206C29.8883 13.3471 27.8652 13.6809 27.8652 13.6809C26.1314 11.6351 23.5301 12.7206 23.5301 12.7206C20.4754 13.8064 20.9295 17.3557 20.9295 17.3557C15.604 17.2723 12.7141 13.1803 12.7141 13.1803C11.1243 16.5203 13.8083 18.5458 13.8083 18.5458C13.2095 18.6083 12.1363 18.1283 12.1363 18.1283C12.0951 21.1978 15.2738 22.2843 15.2738 22.2843C14.9849 22.3255 13.6221 22.3255 13.6221 22.3255C14.3243 24.8314 17.296 25.0818 17.296 25.0818C14.4061 27.2538 11.5166 26.8778 11.5166 26.8778C14.3652 29.0492 17.188 28.82 19.1129 28.5483C23.8449 27.8791 26.3791 24.4135 26.3791 24.4135C29.7228 20.1123 28.6083 16.4791 29.1452 16.2705C29.1538 16.2668 29.1631 16.2631 29.1723 16.2585C29.7252 16.0071 31.0028 14.3914 31.0028 14.3914C30.0951 14.8917 28.8148 14.8945 28.8148 14.8945Z" fill="white"/>
</g>
<defs>
<clipPath id="clip0_55_338">
<rect width="40" height="40" fill="white"/>
</clipPath>
</defs>
</svg>
